<?xml version="1.0" encoding="UTF-8"?>
<svg version="1.1" xmlns="http://www.w3.org/2000/svg" width="500" height="500">
<path d="M0 0 C6.17762925 3.43849175 9.45296682 7.95479165 12.1875 14.375 C13.26330292 21.30795213 12.84473995 26.83929951 9.0625 32.875 C5.02603978 38.33722659 0.36077014 41.38103588 -6.25 43 C-12.77342016 43.615417 -19.00306471 42.48221308 -24.2734375 38.453125 C-28.75676893 34.17788069 -31.80584916 29.9369044 -32.75390625 23.66796875 C-32.87289832 16.59983993 -32.55215721 11.51174803 -28.10546875 5.83984375 C-20.25642301 -1.94310476 -10.29280803 -4.64032798 0 0 Z " fill="#594721" transform="translate(83.25,216)"/>
<path d="M0 0 C3.155625 -0.061875 6.31125 -0.12375 9.5625 -0.1875 C10.5429126 -0.21481201 11.5233252 -0.24212402 12.53344727 -0.27026367 C18.13845143 -0.32311426 22.09258679 0.2114043 27 3 C29.53856745 7.00016689 30.16977185 8.99834606 29.375 13.6875 C28.17544749 16.57733104 27.05293037 18.66712458 25 21 C26.65 23.64 28.3 26.28 30 29 C33.77169202 19.36947177 37.52100511 9.7411857 41 0 C44.3 0 47.6 0 51 0 C54.15164549 7.27637969 57.04466571 14.63290146 59.8125 22.0625 C60.12646729 22.89563721 60.44043457 23.72877441 60.76391602 24.5871582 C61.05451904 25.37437256 61.34512207 26.16158691 61.64453125 26.97265625 C62.03668823 28.02851929 62.03668823 28.02851929 62.43676758 29.10571289 C63 31 63 31 63 34 C60.03 34 57.06 34 54 34 C51 28.25 51 28.25 51 26 C48.03 26.33 45.06 26.66 42 27 C41.01 29.31 40.02 31.62 39 34 C26.33311373 35.32700713 26.33311373 35.32700713 21 34 C18.15370782 31.3348355 16.90433741 29.07236094 15.38671875 25.50390625 C14.92910156 24.67761719 14.47148437 23.85132813 14 23 C12.35 22.67 10.7 22.34 9 22 C9 25.96 9 29.92 9 34 C6.03 34 3.06 34 0 34 C0 22.78 0 11.56 0 0 Z M9 8 C9 9.98 9 11.96 9 14 C11.97 14 14.94 14 18 14 C18.66 12.68 19.32 11.36 20 10 C16.36576791 7.67409146 13.22911669 7.83734167 9 8 Z M46 12 C45.67 13.98 45.34 15.96 45 18 C45.99 18 46.98 18 48 18 C47.67 16.02 47.34 14.04 47 12 C46.67 12 46.34 12 46 12 Z " fill="#3F2F11" transform="translate(361,218)"/>
<path d="M0 0 C4.00430917 1.47050902 6.86695915 4.32642964 9 8 C9 8.99 9 9.98 9 11 C6.03 11.66 3.06 12.32 0 13 C-0.33 12.01 -0.66 11.02 -1 10 C-3.82883747 8.58558126 -5.87376745 8.68099668 -9 9 C-11.04826062 10.47959573 -11.04826062 10.47959573 -12 13 C-12.3009388 16.37051452 -12.23622865 19.10233113 -11.375 22.375 C-10.00821449 24.25714151 -10.00821449 24.25714151 -7.1875 25.0625 C-3.78658027 25.36417087 -3.78658027 25.36417087 -1.5 22.5 C-0.675 21.675 0.15 20.85 1 20 C4.13777068 20.12304983 6.20701911 20.60350956 9 22 C9.33 14.74 9.66 7.48 10 0 C18.91 0 27.82 0 37 0 C37 2.64 37 5.28 37 8 C31.39 8 25.78 8 20 8 C20 9.65 20 11.3 20 13 C25.28 13 30.56 13 36 13 C36 15.64 36 18.28 36 21 C30.72 21 25.44 21 20 21 C20 22.32 20 23.64 20 25 C25.94 25 31.88 25 38 25 C38 27.97 38 30.94 38 34 C28.76 34 19.52 34 10 34 C9.505 30.04 9.505 30.04 9 26 C7.9171875 27.423125 7.9171875 27.423125 6.8125 28.875 C3.7666915 32.46228557 1.44003888 33.77482863 -3.328125 34.21484375 C-8.63340501 34.41339465 -12.50558756 34.10328478 -17 31 C-21.1784783 26.8215217 -22.95034208 22.47605444 -23.03515625 16.5390625 C-22.69516317 11.016248 -21.7528082 7.27403156 -18 3 C-12.38043373 -1.09943927 -6.70707844 -0.76772848 0 0 Z " fill="#241303" transform="translate(446,218)"/>
<path d="M0 0 C1.32 0.33 2.64 0.66 4 1 C4 1.99 4 2.98 4 4 C5.98 4.33 7.96 4.66 10 5 C10.495 6.98 10.495 6.98 11 9 C9.02 9.66 7.04 10.32 5 11 C6.30155006 15.07964281 6.30155006 15.07964281 8 19 C9.30048841 16.39902318 9.56471422 13.86044938 10 11 C11.36125 11.2784375 11.36125 11.2784375 12.75 11.5625 C15.68314324 11.95734621 17.2644657 11.94691572 20 11 C20.66 12.32 21.32 13.64 22 15 C22.99 14.67 23.98 14.34 25 14 C25.67156616 12.06381575 25.67156616 12.06381575 26 10 C26.33 9.34 26.66 8.68 27 8 C28.32 8 29.64 8 31 8 C31.8125 9.625 31.8125 9.625 32 12 C30.80584022 13.43299174 29.60739714 14.86272666 28.38305664 16.27001953 C26.08279392 19.14727666 24.48316949 22.35530766 22.8125 25.625 C22.47025391 26.27984375 22.12800781 26.9346875 21.77539062 27.609375 C20.15193604 30.72388593 18.56722803 33.85693988 17 37 C12.62176083 37.04938149 8.24366854 37.0857104 3.86523438 37.10986328 C2.3752968 37.11993043 0.88537903 37.13358518 -0.60449219 37.15087891 C-2.74419028 37.17509653 -4.88362753 37.18647564 -7.0234375 37.1953125 C-8.31169434 37.20578613 -9.59995117 37.21625977 -10.92724609 37.22705078 C-14 37 -14 37 -16 35 C-16.6742429 33.8360475 -17.30688396 32.64758179 -17.91015625 31.4453125 C-18.43512695 30.39923828 -18.43512695 30.39923828 -18.97070312 29.33203125 C-19.33099609 28.60371094 -19.69128906 27.87539062 -20.0625 27.125 C-20.42666016 26.40441406 -20.79082031 25.68382812 -21.16601562 24.94140625 C-21.51470703 24.24144531 -21.86339844 23.54148438 -22.22265625 22.8203125 C-22.53984619 22.18367676 -22.85703613 21.54704102 -23.18383789 20.89111328 C-24 19 -24 19 -24.48217773 16.83935547 C-24.83656546 14.77815304 -24.83656546 14.77815304 -27.0625 13.75 C-27.701875 13.5025 -28.34125 13.255 -29 13 C-29 11.35 -29 9.7 -29 8 C-26.875 8 -26.875 8 -24 9 C-21.74515308 11.49775783 -19.85734917 14.19801963 -18 17 C-18 16.67 -18 16.34 -18 16 C-18 14.68 -18 13.36 -18 12 C-13.87831311 10.37049588 -11.29299643 9.73735399 -7 11 C-6.67 13.31 -6.34 15.62 -6 18 C-4.10786631 15.61426621 -2.97608217 13.92824652 -2 11 C-3.98 10.34 -5.96 9.68 -8 9 C-8 7.68 -8 6.36 -8 5 C-7.05125 4.9175 -6.1025 4.835 -5.125 4.75 C-1.89538209 4.34925077 -1.89538209 4.34925077 -0.625 1.9375 C-0.315625 0.9784375 -0.315625 0.9784375 0 0 Z " fill="#F5BD24" transform="translate(262,180)"/>
<path d="M0 0 C2.97 0 5.94 0 9 0 C9 8.25 9 16.5 9 25 C14.61 25 20.22 25 26 25 C25.98839844 23.27910156 25.97679687 21.55820313 25.96484375 19.78515625 C25.95546766 17.54427191 25.94636727 15.30338641 25.9375 13.0625 C25.92912109 11.92619141 25.92074219 10.78988281 25.91210938 9.61914062 C25.90727539 7.99975586 25.90727539 7.99975586 25.90234375 6.34765625 C25.89448853 4.84730835 25.89448853 4.84730835 25.88647461 3.31665039 C26 1 26 1 27 0 C29.97 0 32.94 0 36 0 C36 8.25 36 16.5 36 25 C41.28 25 46.56 25 52 25 C52 27.97 52 30.94 52 34 C34.84 34 17.68 34 0 34 C0 22.78 0 11.56 0 0 Z " fill="#241914" transform="translate(296,218)"/>
<path d="M0 0 C3.17625 -0.061875 6.3525 -0.12375 9.625 -0.1875 C11.1092749 -0.22846802 11.1092749 -0.22846802 12.62353516 -0.27026367 C17.85422434 -0.31943025 21.48205183 0.0569202 26 3 C28 5 28 5 28.1875 8.9375 C28.16190316 11.67636155 27.88664156 13.34007532 27 16 C27.474375 16.5775 27.94875 17.155 28.4375 17.75 C30.70181736 21.010617 30.54507546 23.11633736 30 27 C26.74750636 31.4352186 23.27275158 33.02915014 18 34 C14.84626104 34.21899541 11.72167507 34.19066482 8.5625 34.125 C5.736875 34.08375 2.91125 34.0425 0 34 C0 22.78 0 11.56 0 0 Z M10 8 C10 9.32 10 10.64 10 12 C12.64 12 15.28 12 18 12 C18.33 11.01 18.66 10.02 19 9 C16.04335481 7.5216774 13.25770263 7.93967217 10 8 Z M10 20 C10 21.98 10 23.96 10 26 C11.27875 26.020625 12.5575 26.04125 13.875 26.0625 C14.59429687 26.07410156 15.31359375 26.08570313 16.0546875 26.09765625 C18.08185404 26.12649242 18.08185404 26.12649242 20 25 C20 23.68 20 22.36 20 21 C17.71294169 19.85647084 16.40735238 19.89665561 13.875 19.9375 C11.956875 19.9684375 11.956875 19.9684375 10 20 Z " fill="#B88F35" transform="translate(232,218)"/>
<path d="M0 0 C3.3 0 6.6 0 10 0 C12.25152447 2.32014858 13.22999403 3.59870184 14.5625 6.375 C14.89056641 6.97828125 15.21863281 7.5815625 15.55664062 8.203125 C16.40790585 9.78279242 17.20745178 11.39007175 18 13 C18.33 13.66 18.66 14.32 19 15 C19.33 10.05 19.66 5.1 20 0 C22.97 0 25.94 0 29 0 C29 11.22 29 22.44 29 34 C25.7 34 22.4 34 19 34 C16.03 28.72 13.06 23.44 10 18 C9.67 23.28 9.34 28.56 9 34 C6.03 34 3.06 34 0 34 C0 22.78 0 11.56 0 0 Z " fill="#D8AB43" transform="translate(188,218)"/>
<path d="M0 0 C3.86822962 1.39532568 5.71633148 3.57449722 8 7 C8 8.32 8 9.64 8 11 C2.72631579 12.75789474 2.72631579 12.75789474 0 13 C-2.125 11.125 -2.125 11.125 -4 9 C-7.16143049 8.54836707 -9.05177088 8.2899411 -11.6640625 10.24609375 C-13.35982416 12.47240073 -13.37256559 13.72774218 -13.3125 16.5 C-13.30863281 17.2734375 -13.30476563 18.046875 -13.30078125 18.84375 C-13.11825461 21.29324946 -13.11825461 21.29324946 -11 24 C-7.43537354 24.92990255 -4.4697167 25.41358829 -1 24 C-0.67 23.34 -0.34 22.68 0 22 C-2.64 22 -5.28 22 -8 22 C-8.04241723 19.66705225 -8.04092937 17.33297433 -8 15 C-7 14 -7 14 -3.40234375 13.90234375 C-1.91403133 13.9090178 -0.42573568 13.92097817 1.0625 13.9375 C2.20041992 13.94426758 2.20041992 13.94426758 3.36132812 13.95117188 C5.24091871 13.9629932 7.12046899 13.98092922 9 14 C9.13526139 16.24834496 9.23210804 18.49902514 9.3125 20.75 C9.37050781 22.00296875 9.42851563 23.2559375 9.48828125 24.546875 C9 28 9 28 6.6484375 30.375 C0.67073297 34.04273611 -5.10329369 34.83015909 -12 34 C-16.74393944 32.71653693 -19.98619499 30.71800013 -22.5 26.4375 C-25.08273318 20.29633445 -24.96529274 13.79426845 -22.8125 7.5625 C-16.82301565 -0.90539166 -9.68086916 -0.81407309 0 0 Z " fill="#CBA348" transform="translate(40,218)"/>
<path d="M0 0 C19.72413793 0 19.72413793 0 25 3 C30.10621491 8.2371435 30.35392012 12.94395082 30.27734375 19.98046875 C29.86681625 24.45001466 28.82625217 26.50437232 26 30 C17.73128519 35.27790307 9.96367512 34 0 34 C0 22.78 0 11.56 0 0 Z M10 8 C10 13.61 10 19.22 10 25 C16.36402608 25.60024505 16.36402608 25.60024505 18.875 23.875 C21.12462938 20.1256177 21.20428723 16.96572143 20.3125 12.75 C19.24128626 9.96474737 19.24128626 9.96474737 17.1875 8.625 C14.57790243 7.77106573 14.57790243 7.77106573 10 8 Z " fill="#DDAB3C" transform="translate(127,218)"/>
<path d="M0 0 C8.91 0 17.82 0 27 0 C27 2.64 27 5.28 27 8 C18.585 8.495 18.585 8.495 10 9 C10 9.99 10 10.98 10 12 C15.28 12.33 20.56 12.66 26 13 C26 15.64 26 18.28 26 21 C20.39 21 14.78 21 9 21 C9 22.32 9 23.64 9 25 C15.27 25 21.54 25 28 25 C28 27.97 28 30.94 28 34 C18.76 34 9.52 34 0 34 C0 22.78 0 11.56 0 0 Z " fill="#D2A84F" transform="translate(159,218)"/>
<path d="M0 0 C3.63 0 7.26 0 11 0 C12.57489237 4.19615907 14.14120605 8.39539014 15.69970703 12.59765625 C16.23089701 14.02626238 16.76440643 15.45400834 17.30029297 16.88085938 C18.07092396 18.93396903 18.83311379 20.9900449 19.59375 23.046875 C20.05458984 24.28276367 20.51542969 25.51865234 20.99023438 26.79199219 C22 30 22 30 22 34 C19.03 34 16.06 34 13 34 C11.515 30.535 11.515 30.535 10 27 C7.03 26.67 4.06 26.34 1 26 C0.690625 27.134375 0.38125 28.26875 0.0625 29.4375 C-1 33 -1 33 -2 34 C-5.00003445 34.14177857 -7.99757235 34.04228771 -11 34 C-9.52240282 26.34409815 -7.07301905 19.2432297 -4.375 11.9375 C-3.95476562 10.78572266 -3.53453125 9.63394531 -3.1015625 8.44726562 C-2.07273134 5.62967121 -1.03706122 2.81457561 0 0 Z M5 12 C4.67 13.98 4.34 15.96 4 18 C4.99 18 5.98 18 7 18 C6.67 16.02 6.34 14.04 6 12 C5.67 12 5.34 12 5 12 Z " fill="#DAA93E" transform="translate(273,218)"/>
<path d="M0 0 C3.031875 -0.061875 6.06375 -0.12375 9.1875 -0.1875 C10.60712036 -0.22846802 10.60712036 -0.22846802 12.05541992 -0.27026367 C16.84936401 -0.3175874 20.15522761 -0.20273273 24 3 C26.25653289 6.38479933 26.08973148 8.0104722 25.77734375 11.96484375 C24.64039836 14.94146963 22.53925591 16.18392417 20 18 C20.5053125 18.78246094 21.010625 19.56492188 21.53125 20.37109375 C22.1809375 21.38300781 22.830625 22.39492187 23.5 23.4375 C24.1496875 24.44683594 24.799375 25.45617187 25.46875 26.49609375 C27 29 27 29 27 30 C23.9375 30.6875 23.9375 30.6875 20 30 C18.00449043 27.28961557 16.43302413 24.44403927 14.77734375 21.515625 C13.25052598 18.92010766 13.25052598 18.92010766 11.00390625 18.046875 C8.88012176 17.7312931 8.88012176 17.7312931 6 18 C6 21.96 6 25.92 6 30 C4.02 30 2.04 30 0 30 C0 20.1 0 10.2 0 0 Z M7 6 C7 7.98 7 9.96 7 12 C9.97 12 12.94 12 16 12 C16.66 10.68 17.32 9.36 18 8 C14.36576791 5.67409146 11.22911669 5.83734167 7 6 Z " fill="#D3AB4D" transform="translate(363,220)"/>
<path d="M0 0 C4.88519971 2.71570944 8.1525773 6.04655077 10.75 11 C11.625 14.5 11.625 14.5 11.75 17 C10.43 17.33 9.11 17.66 7.75 18 C7.275625 16.865625 6.80125 15.73125 6.3125 14.5625 C4.90994736 12.03280505 4.28787256 11.16293558 1.48046875 10.3125 C-0.7541169 10.08728192 -3.00433627 10.03302447 -5.25 10 C-5.91 12.97 -6.57 15.94 -7.25 19 C-10.88 19 -14.51 19 -18.25 19 C-18.91 16.36 -19.57 13.72 -20.25 11 C-22.56 10.67 -24.87 10.34 -27.25 10 C-27.6521875 11.1446875 -27.6521875 11.1446875 -28.0625 12.3125 C-29.19424112 14.87380884 -30.16223401 16.19692938 -32.25 18 C-31.98246506 11.5791614 -29.87845329 7.48762814 -25.25 3 C-17.16487434 -2.76117388 -9.12687564 -4.01691832 0 0 Z " fill="#2F220C" transform="translate(83.25,216)"/>
<path d="M0 0 C1.32 0.33 2.64 0.66 4 1 C4 1.99 4 2.98 4 4 C5.98 4.33 7.96 4.66 10 5 C10.495 6.98 10.495 6.98 11 9 C9.02 9.66 7.04 10.32 5 11 C6.30155006 15.07964281 6.30155006 15.07964281 8 19 C8.66 18.67 9.32 18.34 10 18 C9.505 20.475 9.505 20.475 9 23 C8.13375 21.824375 8.13375 21.824375 7.25 20.625 C5.17102363 18.19952756 3.90959667 17.14305583 1 16 C1 16.66 1 17.32 1 18 C0.34 18 -0.32 18 -1 18 C-1 18.99 -1 19.98 -1 21 C-7.75 24 -7.75 24 -10 24 C-10.66 27.3 -11.32 30.6 -12 34 C-12.66 34 -13.32 34 -14 34 C-14 34.66 -14 35.32 -14 36 C-17.39988716 34.30005642 -18.44795768 30.48879135 -20.0625 27.1875 C-20.42666016 26.46240234 -20.79082031 25.73730469 -21.16601562 24.99023438 C-23.89265006 19.48152561 -23.89265006 19.48152561 -24.48217773 16.8371582 C-24.8369876 14.77800434 -24.8369876 14.77800434 -27.0625 13.75 C-27.701875 13.5025 -28.34125 13.255 -29 13 C-29 11.35 -29 9.7 -29 8 C-26.875 8 -26.875 8 -24 9 C-21.74515308 11.49775783 -19.85734917 14.19801963 -18 17 C-18 16.67 -18 16.34 -18 16 C-18 14.68 -18 13.36 -18 12 C-13.87831311 10.37049588 -11.29299643 9.73735399 -7 11 C-6.67 13.31 -6.34 15.62 -6 18 C-4.10786631 15.61426621 -2.97608217 13.92824652 -2 11 C-3.98 10.34 -5.96 9.68 -8 9 C-8 7.68 -8 6.36 -8 5 C-7.05125 4.9175 -6.1025 4.835 -5.125 4.75 C-1.89538209 4.34925077 -1.89538209 4.34925077 -0.625 1.9375 C-0.315625 0.9784375 -0.315625 0.9784375 0 0 Z " fill="#ECB92E" transform="translate(262,180)"/>
<path d="M0 0 C3.3 0 6.6 0 10 0 C10 8.25 10 16.5 10 25 C15.28 25 20.56 25 26 25 C26 27.97 26 30.94 26 34 C17.42 34 8.84 34 0 34 C0 22.78 0 11.56 0 0 Z " fill="#D9AB43" transform="translate(100,218)"/>
<path d="M0 0 C5.90835735 -0.61729107 5.90835735 -0.61729107 9 0 C10.78062189 1.69159079 11.84110499 3.32586708 13.02734375 5.46875 C13.34832031 5.9740625 13.66929688 6.479375 14 7 C14.66 7 15.32 7 16 7 C16.3152595 12.98993047 15.68219822 16.63560356 13 22 C12.34 22 11.68 22 11 22 C10.67 19.69 10.34 17.38 10 15 C5.90456041 15.06252588 5.90456041 15.06252588 2 16 C0.61020004 17.60957007 0.61020004 17.60957007 -0.4375 19.5625 C-1.88175103 21.94011054 -2.47126103 22.83584277 -5.1640625 23.671875 C-7.67837637 23.81929405 -9.58366646 23.71412088 -12 23 C-14.6875 20.375 -14.6875 20.375 -16 17 C-15.27566259 13.30587922 -14.08819573 11.13229359 -12 8 C-9.8359375 7.70703125 -9.8359375 7.70703125 -7.375 7.8125 C-6.55773437 7.83957031 -5.74046875 7.86664063 -4.8984375 7.89453125 C-4.27195312 7.92933594 -3.64546875 7.96414062 -3 8 C-2.01 5.36 -1.02 2.72 0 0 Z " fill="#D7A93F" transform="translate(78,226)"/>
<path d="M0 0 C7.92 0 15.84 0 24 0 C24 1.65 24 3.3 24 5 C18.06 5 12.12 5 6 5 C6 7.31 6 9.62 6 12 C11.28 12 16.56 12 22 12 C22 13.65 22 15.3 22 17 C16.72 17 11.44 17 6 17 C6 19.64 6 22.28 6 25 C12.27 25 18.54 25 25 25 C25 26.65 25 28.3 25 30 C16.75 30 8.5 30 0 30 C0 20.1 0 10.2 0 0 Z " fill="#D2A33D" transform="translate(458,220)"/>
<path d="M0 0 C3.11310148 1.67628541 4.57208772 2.6902776 6.25 5.75 C6.25 6.41 6.25 7.07 6.25 7.75 C4.0625 8.5 4.0625 8.5 1.25 8.75 C-0.42083819 7.42189785 -2.08729713 6.08827304 -3.75 4.75 C-6.79279372 4.08319632 -6.79279372 4.08319632 -9.75 4.75 C-12.05275556 6.6170991 -13.42823871 8.10647741 -14.75 10.75 C-15.12924138 15.77494826 -14.75366502 18.66501557 -11.75 22.75 C-10.53410016 24.18155899 -10.53410016 24.18155899 -6.9375 24.0625 C-3.6435441 24.05077774 -3.06477233 24.04678534 -0.5625 21.6875 C0.035625 21.048125 0.63375 20.40875 1.25 19.75 C4 20 4 20 6.25 20.75 C5.9155974 23.84322404 5.6904882 25.33887768 3.375 27.5 C-1.71715264 30.49538391 -7.01542454 30.18788241 -12.75 29.75 C-16.60590225 28.43735243 -18.08520769 26.54776117 -20.0625 23.125 C-22.64204624 17.42063758 -22.66106372 12.29138826 -20.5625 6.4375 C-15.40583286 -1.20859266 -8.61745122 -2.87248374 0 0 Z " fill="#CAA245" transform="translate(446.75,220.25)"/>
<path d="M0 0 C3.3 0 6.6 0 10 0 C12.25152447 2.32014858 13.22999403 3.59870184 14.5625 6.375 C14.89056641 6.97828125 15.21863281 7.5815625 15.55664062 8.203125 C16.40790585 9.78279242 17.20745178 11.39007175 18 13 C18.33 13.66 18.66 14.32 19 15 C19.33 10.05 19.66 5.1 20 0 C22.97 0 25.94 0 29 0 C29 11.22 29 22.44 29 34 C25.7 34 22.4 34 19 34 C16.03 28.72 13.06 23.44 10 18 C9.67 23.28 9.34 28.56 9 34 C6.03 34 3.06 34 0 34 C0 22.78 0 11.56 0 0 Z M2 2 C2 11.9 2 21.8 2 32 C3.65 32 5.3 32 7 32 C7.33 25.07 7.66 18.14 8 11 C11.96 17.93 15.92 24.86 20 32 C22.31 32 24.62 32 27 32 C27 22.1 27 12.2 27 2 C25.35 2 23.7 2 22 2 C21.67 8.6 21.34 15.2 21 22 C20.21753906 20.64003906 19.43507812 19.28007812 18.62890625 17.87890625 C17.60685355 16.10672313 16.58471363 14.3345903 15.5625 12.5625 C15.04623047 11.66466797 14.52996094 10.76683594 13.99804688 9.84179688 C13.25844727 8.56079102 13.25844727 8.56079102 12.50390625 7.25390625 C12.04830322 6.46314697 11.5927002 5.6723877 11.12329102 4.85766602 C10.1338793 3.05414477 10.1338793 3.05414477 9 2 C6.69 2 4.38 2 2 2 Z " fill="#3B2C0D" transform="translate(188,218)"/>
<path d="M0 0 C2.64 0 5.28 0 8 0 C9.93242285 3.34520258 10.5463853 6.44767482 11.125 10.25 C11.29257812 11.32765625 11.46015625 12.4053125 11.6328125 13.515625 C11.75398438 14.33546875 11.87515625 15.1553125 12 16 C10.68 16 9.36 16 8 16 C6.68 13.03 5.36 10.06 4 7 C2.68 10.63 1.36 14.26 0 18 C4.62 18 9.24 18 14 18 C14 18.99 14 19.98 14 21 C14.66 21 15.32 21 16 21 C17.485 25.455 17.485 25.455 19 30 C17.02 30 15.04 30 13 30 C11.515 26.535 11.515 26.535 10 23 C6.37 23 2.74 23 -1 23 C-1.99 25.31 -2.98 27.62 -4 30 C-5.98 30 -7.96 30 -10 30 C-9.33372522 26.17736359 -8.26037893 22.68695622 -6.93359375 19.04296875 C-6.53076172 17.93115234 -6.12792969 16.81933594 -5.71289062 15.67382812 C-5.29201172 14.52333984 -4.87113281 13.37285156 -4.4375 12.1875 C-4.01275391 11.01767578 -3.58800781 9.84785156 -3.15039062 8.64257812 C-2.10344692 5.76054207 -1.05321116 2.87975032 0 0 Z " fill="#D7A942" transform="translate(403,220)"/>
<path d="M0 0 C3.86822962 1.39532568 5.71633148 3.57449722 8 7 C8 8.32 8 9.64 8 11 C2.72631579 12.75789474 2.72631579 12.75789474 0 13 C-2.125 11.125 -2.125 11.125 -4 9 C-7.16143049 8.54836707 -9.05177088 8.2899411 -11.6640625 10.24609375 C-13.35982416 12.47240073 -13.37256559 13.72774218 -13.3125 16.5 C-13.30863281 17.2734375 -13.30476563 18.046875 -13.30078125 18.84375 C-13.11825461 21.29324946 -13.11825461 21.29324946 -11 24 C-7.43537354 24.92990255 -4.4697167 25.41358829 -1 24 C-0.67 23.34 -0.34 22.68 0 22 C-2.64 22 -5.28 22 -8 22 C-8.04241723 19.66705225 -8.04092937 17.33297433 -8 15 C-7 14 -7 14 -3.40234375 13.90234375 C-1.91403133 13.9090178 -0.42573568 13.92097817 1.0625 13.9375 C2.20041992 13.94426758 2.20041992 13.94426758 3.36132812 13.95117188 C5.24091871 13.9629932 7.12046899 13.98092922 9 14 C9.13526139 16.24834496 9.23210804 18.49902514 9.3125 20.75 C9.37050781 22.00296875 9.42851563 23.2559375 9.48828125 24.546875 C9 28 9 28 6.6484375 30.375 C0.67073297 34.04273611 -5.10329369 34.83015909 -12 34 C-16.74393944 32.71653693 -19.98619499 30.71800013 -22.5 26.4375 C-25.08273318 20.29633445 -24.96529274 13.79426845 -22.8125 7.5625 C-16.82301565 -0.90539166 -9.68086916 -0.81407309 0 0 Z M-19 5 C-23.18600399 10.51093186 -22.75112386 16.36507255 -22 23 C-19.83465073 27.65149102 -17.51409328 29.71052453 -13 32 C-5.33959966 33.17283371 0.46371696 32.02232802 7 28 C7 24.04 7 20.08 7 16 C2.71 16 -1.58 16 -6 16 C-6 17.65 -6 19.3 -6 21 C-3.36 21 -0.72 21 2 21 C1.625 22.9375 1.625 22.9375 1 25 C-1.46369532 26.23184766 -3.1894501 26.16732342 -5.9375 26.1875 C-6.81277344 26.20167969 -7.68804687 26.21585938 -8.58984375 26.23046875 C-11 26 -11 26 -14 24 C-15.35598277 19.93205168 -15.65482606 16.24892816 -15 12 C-12.58929772 8.52575259 -11.22651122 7.23486385 -7.0625 6.4375 C-3.29344454 7.12977549 -1.02354243 8.69634863 2 11 C3.32 10.34 4.64 9.68 6 9 C4.60415208 5.62670085 3.07634389 3.95767338 0 2 C-6.83149233 -0.27716411 -13.27788739 0.57202372 -19 5 Z " fill="#3A2A0F" transform="translate(40,218)"/>
<path d="M0 0 C8.91 0 17.82 0 27 0 C27 2.64 27 5.28 27 8 C21.72 8 16.44 8 11 8 C11 7.67 11 7.34 11 7 C15.62 7 20.24 7 25 7 C25 5.35 25 3.7 25 2 C17.08 2 9.16 2 1 2 C1 11.9 1 21.8 1 32 C9.25 32 17.5 32 26 32 C26 30.35 26 28.7 26 27 C20.06 27 14.12 27 8 27 C8 24.36 8 21.72 8 19 C13.28 19 18.56 19 24 19 C24 17.35 24 15.7 24 14 C18.72 14 13.44 14 8 14 C8 11.69 8 9.38 8 7 C10 10.875 10 10.875 10 12 C15.28 12.33 20.56 12.66 26 13 C26 15.64 26 18.28 26 21 C20.39 21 14.78 21 9 21 C9 22.32 9 23.64 9 25 C15.27 25 21.54 25 28 25 C28 27.97 28 30.94 28 34 C18.76 34 9.52 34 0 34 C0 22.78 0 11.56 0 0 Z " fill="#170B03" transform="translate(159,218)"/>
<path d="M0 0 C1.98 0 3.96 0 6 0 C6 8.25 6 16.5 6 25 C11.61 25 17.22 25 23 25 C23 26.65 23 28.3 23 30 C15.41 30 7.82 30 0 30 C0 20.1 0 10.2 0 0 Z " fill="#D3A742" transform="translate(324,220)"/>
<path d="M0 0 C1.98 0 3.96 0 6 0 C6 8.25 6 16.5 6 25 C11.28 25 16.56 25 22 25 C22 26.65 22 28.3 22 30 C14.74 30 7.48 30 0 30 C0 20.1 0 10.2 0 0 Z " fill="#D2A645" transform="translate(298,220)"/>
<path d="M0 0 C0.33 0.66 0.66 1.32 1 2 C0.62875 2.928125 0.2575 3.85625 -0.125 4.8125 C-1.28163349 7.9500319 -1.28163349 7.9500319 -0.1875 10.875 C2.27149198 13.26373507 3.06001169 13.47328979 6.375 13.75 C8.79360668 13.73661459 8.79360668 13.73661459 11 13 C12.53065488 11.29646124 13.53781061 9.54320643 14.671875 7.55859375 C16 6 16 6 18.078125 5.53515625 C20.3125 5.5625 20.3125 5.5625 24 6 C24.9375 9.125 24.9375 9.125 25 13 C22.97453209 15.4443474 20.61534535 17.2194781 18 19 C16 18 14 17 12 16 C10.12943209 15.7724985 8.25314042 15.59037189 6.375 15.4375 C5.37210938 15.35371094 4.36921875 15.26992187 3.3359375 15.18359375 C2.17964844 15.09271484 2.17964844 15.09271484 1 15 C1 15.66 1 16.32 1 17 C-0.6875 17.75 -0.6875 17.75 -3 18 C-6.12861355 16.3975394 -7.63752693 14.84993685 -9.01953125 11.609375 C-11.23252237 4.69756711 -11.23252237 4.69756711 -10 1 C-9.34 2.32 -8.68 3.64 -8 5 C-5.62694422 5.41780879 -5.62694422 5.41780879 -3 5 C-1.1375562 2.59141286 -1.1375562 2.59141286 0 0 Z " fill="#0E0601" transform="translate(64,235)"/>
<path d="M0 0 C3.3 0 6.6 0 10 0 C10 8.25 10 16.5 10 25 C15.28 25 20.56 25 26 25 C26 27.97 26 30.94 26 34 C17.42 34 8.84 34 0 34 C0 22.78 0 11.56 0 0 Z M2 2 C2 11.9 2 21.8 2 32 C9.26 32 16.52 32 24 32 C24 30.35 24 28.7 24 27 C18.72 27 13.44 27 8 27 C8 18.75 8 10.5 8 2 C6.02 2 4.04 2 2 2 Z " fill="#22170F" transform="translate(100,218)"/>
<path d="M0 0 C3.63 0 7.26 0 11 0 C12.57489237 4.19615907 14.14120605 8.39539014 15.69970703 12.59765625 C16.23089701 14.02626238 16.76440643 15.45400834 17.30029297 16.88085938 C18.07092396 18.93396903 18.83311379 20.9900449 19.59375 23.046875 C20.05458984 24.28276367 20.51542969 25.51865234 20.99023438 26.79199219 C22 30 22 30 22 34 C19.03 34 16.06 34 13 34 C11.515 30.535 11.515 30.535 10 27 C7.03 26.67 4.06 26.34 1 26 C0.690625 27.134375 0.38125 28.26875 0.0625 29.4375 C-1 33 -1 33 -2 34 C-5.00003445 34.14177857 -7.99757235 34.04228771 -11 34 C-9.52240282 26.34409815 -7.07301905 19.2432297 -4.375 11.9375 C-3.95476562 10.78572266 -3.53453125 9.63394531 -3.1015625 8.44726562 C-2.07273134 5.62967121 -1.03706122 2.81457561 0 0 Z M2 2 C-0.85540135 8.22203585 -3.40026523 14.50850466 -5.75 20.9375 C-6.06582031 21.78634766 -6.38164062 22.63519531 -6.70703125 23.50976562 C-7.00480469 24.31994141 -7.30257813 25.13011719 -7.609375 25.96484375 C-7.87717773 26.6930835 -8.14498047 27.42132324 -8.42089844 28.17163086 C-9.10064921 29.99812693 -9.10064921 29.99812693 -9 32 C-7.02 32 -5.04 32 -3 32 C-2.01 29.69 -1.02 27.38 0 25 C3.96 24.67 7.92 24.34 12 24 C12.144375 24.94875 12.28875 25.8975 12.4375 26.875 C12.82935399 29.8934494 12.82935399 29.8934494 14 32 C15.98 32 17.96 32 20 32 C17.98086853 25.0449018 15.73400143 18.19969087 13.3125 11.375 C12.99216797 10.46621094 12.67183594 9.55742187 12.34179688 8.62109375 C11.56326686 6.41332207 10.78264756 4.20631463 10 2 C7.36 2 4.72 2 2 2 Z " fill="#37270E" transform="translate(273,218)"/>
<path d="M0 0 C2.08304538 -0.05418326 4.16649768 -0.09287551 6.25 -0.125 C7.99023438 -0.15980469 7.99023438 -0.15980469 9.765625 -0.1953125 C12.82786046 -0.0103949 14.44202751 0.39176977 17 2 C17 2.66 17 3.32 17 4 C16.01 4.495 16.01 4.495 15 5 C15.48597656 5.55945313 15.97195312 6.11890625 16.47265625 6.6953125 C19.05353838 10.58973822 18.59522383 14.49330526 18 19 C16.6875 22.625 16.6875 22.625 14 25 C10.27672991 25.54817825 6.72884913 25.48690757 3 25 C0.86140847 22.86140847 1.62460437 18.16646752 1.5 15.1875 C1.43078533 13.55582834 1.35798758 11.92430392 1.28125 10.29296875 C1.25095703 9.5661792 1.22066406 8.83938965 1.18945312 8.09057617 C0.99746894 5.97207028 0.53394235 4.05497549 0 2 C0 1.34 0 0.68 0 0 Z M6 5 C6 10.61 6 16.22 6 22 C12.36402608 22.60024505 12.36402608 22.60024505 14.875 20.875 C17.12462938 17.1256177 17.20428723 13.96572143 16.3125 9.75 C15.24128626 6.96474737 15.24128626 6.96474737 13.1875 5.625 C10.57790243 4.77106573 10.57790243 4.77106573 6 5 Z " fill="#D4AA49" transform="translate(131,221)"/>
<path d="M0 0 C3.17625 -0.061875 6.3525 -0.12375 9.625 -0.1875 C11.1092749 -0.22846802 11.1092749 -0.22846802 12.62353516 -0.27026367 C17.85422434 -0.31943025 21.48205183 0.0569202 26 3 C28 5 28 5 28.1875 8.9375 C28.16190316 11.67636155 27.88664156 13.34007532 27 16 C27.474375 16.5775 27.94875 17.155 28.4375 17.75 C30.70181736 21.010617 30.54507546 23.11633736 30 27 C26.74750636 31.4352186 23.27275158 33.02915014 18 34 C14.84626104 34.21899541 11.72167507 34.19066482 8.5625 34.125 C5.736875 34.08375 2.91125 34.0425 0 34 C0 22.78 0 11.56 0 0 Z M2 2 C2 11.9 2 21.8 2 32 C4.825625 32.061875 7.65125 32.12375 10.5625 32.1875 C11.43849854 32.21481201 12.31449707 32.24212402 13.21704102 32.27026367 C18.57321594 32.32651712 22.27115708 31.56637598 27 29 C28.52491998 25.95016004 28.23562548 23.3576631 28 20 C26.76913958 18.0153062 26.76913958 18.0153062 25 17 C24.34 17 23.68 17 23 17 C23.680625 16.13375 24.36125 15.2675 25.0625 14.375 C27.25182776 11.18765817 27.25182776 11.18765817 27.0625 7.8125 C26.23028755 4.92491546 26.23028755 4.92491546 24.046875 3.3359375 C19.72129699 1.43933791 15.84748901 1.67802002 11.1875 1.8125 C8.155625 1.874375 5.12375 1.93625 2 2 Z " fill="#2E200C" transform="translate(232,218)"/>
<path d="M0 0 C19.72413793 0 19.72413793 0 25 3 C30.10621491 8.2371435 30.35392012 12.94395082 30.27734375 19.98046875 C29.86681625 24.45001466 28.82625217 26.50437232 26 30 C17.73128519 35.27790307 9.96367512 34 0 34 C0 22.78 0 11.56 0 0 Z M2 2 C2 11.9 2 21.8 2 32 C5.774375 32.0928125 5.774375 32.0928125 9.625 32.1875 C10.40568848 32.21481201 11.18637695 32.24212402 11.99072266 32.27026367 C16.73440474 32.32626297 19.87434343 31.57239599 24 29 C27.84794341 25.15205659 28.34109001 21.75399929 28.5625 16.5 C28.43799779 12.45598374 28.31402503 9.52745399 25.75 6.3125 C20.5195347 1.91415418 16.88376768 1.73308108 10.25 1.875 C7.5275 1.91625 4.805 1.9575 2 2 Z " fill="#31230E" transform="translate(127,218)"/>
<path d="M0 0 C4.4708575 2.0041775 6.44894492 3.69454275 8.38671875 8.28515625 C8.81597656 9.53167969 9.24523437 10.77820313 9.6875 12.0625 C9.91244141 12.69994141 10.13738281 13.33738281 10.36914062 13.99414062 C12 18.69835201 12 18.69835201 12 21 C10.02 21 8.04 21 6 21 C4.74335022 18.09399739 4 16.20395416 4 13 C-1.94 13.495 -1.94 13.495 -8 14 C-8.99 16.31 -9.98 18.62 -11 21 C-12.98 21 -14.96 21 -17 21 C-16.54803755 19.39402675 -16.08817673 17.79027492 -15.625 16.1875 C-15.36976563 15.29417969 -15.11453125 14.40085938 -14.8515625 13.48046875 C-14 11 -14 11 -12 8 C-11.78721942 12.46839215 -12.40861915 15.82262526 -14 20 C-13.34 20 -12.68 20 -12 20 C-12 18.68 -12 17.36 -12 16 C-11.34 16 -10.68 16 -10 16 C-10.33 14.68 -10.66 13.36 -11 12 C-9.68 12 -8.36 12 -7 12 C-7 11.01 -7 10.02 -7 9 C-4.03 9 -1.06 9 2 9 C1.67 8.2575 1.34 7.515 1 6.75 C0 4 0 4 0 0 Z " fill="#D8A945" transform="translate(281,229)"/>
<path d="M0 0 C2.97 0 5.94 0 9 0 C9 8.25 9 16.5 9 25 C14.28 25 19.56 25 25 25 C26 28 26 28 25 34 C16.75 34 8.5 34 0 34 C0 22.78 0 11.56 0 0 Z M2 2 C2 11.9 2 21.8 2 32 C9.26 32 16.52 32 24 32 C24 30.35 24 28.7 24 27 C18.72 27 13.44 27 8 27 C8 18.75 8 10.5 8 2 C6.02 2 4.04 2 2 2 Z " fill="#160B06" transform="translate(296,218)"/>
<path d="M0 0 C0.66 0 1.32 0 2 0 C2.83919398 2.26882087 3.67151724 4.53977027 4.5 6.8125 C4.73847656 7.45509766 4.97695313 8.09769531 5.22265625 8.75976562 C6.27068746 11.64933739 7 13.90076061 7 17 C4.03 17 1.06 17 -2 17 C-5 11.25 -5 11.25 -5 9 C-9.455 9.495 -9.455 9.495 -14 10 C-14.99 12.31 -15.98 14.62 -17 17 C-29.66688627 18.32700713 -29.66688627 18.32700713 -35 17 C-37.84629218 14.3348355 -39.09566259 12.07236094 -40.61328125 8.50390625 C-41.07089844 7.67761719 -41.52851563 6.85132813 -42 6 C-43.65 5.67 -45.3 5.34 -47 5 C-47 8.96 -47 12.92 -47 17 C-49.64 16.67 -52.28 16.34 -55 16 C-55 15.67 -55 15.34 -55 15 C-52.69 15 -50.38 15 -48 15 C-48 11.04 -48 7.08 -48 3 C-44.9375 2.3125 -44.9375 2.3125 -41 3 C-39.5390625 5.4140625 -39.5390625 5.4140625 -38.0625 8.4375 C-35.91875177 12.43536512 -35.91875177 12.43536512 -32.12890625 14.61914062 C-27.42627555 15.35689278 -22.740914 15.24472905 -18 15 C-17.690625 13.865625 -17.38125 12.73125 -17.0625 11.5625 C-16 8 -16 8 -15 7 C-13.14712498 6.92773498 -11.29166122 6.9161878 -9.4375 6.9375 C-8.42558594 6.94652344 -7.41367187 6.95554688 -6.37109375 6.96484375 C-5.58863281 6.97644531 -4.80617188 6.98804688 -4 7 C-3.4140625 8.79036458 -2.828125 10.58072917 -2.2421875 12.37109375 C-1.00920398 14.34696559 -1.00920398 14.34696559 2.1171875 14.72265625 C3.06851563 14.81417969 4.01984375 14.90570313 5 15 C4.45859375 13.62714844 4.45859375 13.62714844 3.90625 12.2265625 C3.4421875 11.03804687 2.978125 9.84953125 2.5 8.625 C2.0359375 7.44164062 1.571875 6.25828125 1.09375 5.0390625 C0 2 0 2 0 0 Z " fill="#2E1E06" transform="translate(417,235)"/>
<path d="M0 0 C1.32 0.33 2.64 0.66 4 1 C4 1.99 4 2.98 4 4 C6.97 4.495 6.97 4.495 10 5 C10.33 6.32 10.66 7.64 11 9 C9.02 9.66 7.04 10.32 5 11 C6.30155006 15.07964281 6.30155006 15.07964281 8 19 C8.66 18.67 9.32 18.34 10 18 C9.67 19.65 9.34 21.3 9 23 C6.74754119 20.31158141 5.11786042 18.35358125 4 15 C2.68 15 1.36 15 0 15 C0 15.66 0 16.32 0 17 C-1.95927063 18.7143618 -3.95880212 20.38405168 -6 22 C-4.7874262 18.27566618 -3.49140021 14.62197194 -2 11 C-3.98 10.34 -5.96 9.68 -8 9 C-8 7.68 -8 6.36 -8 5 C-6.576875 4.87625 -6.576875 4.87625 -5.125 4.75 C-1.89538209 4.34925077 -1.89538209 4.34925077 -0.625 1.9375 C-0.41875 1.298125 -0.2125 0.65875 0 0 Z " fill="#E9BC47" transform="translate(262,180)"/>
<path d="M0 0 C8.91 0 17.82 0 27 0 C27 2.64 27 5.28 27 8 C21.39 8 15.78 8 10 8 C10 9.65 10 11.3 10 13 C15.28 13 20.56 13 26 13 C26 15.64 26 18.28 26 21 C20.72 21 15.44 21 10 21 C10 22.65 10 24.3 10 26 C9.34 26.33 8.68 26.66 8 27 C8 24.36 8 21.72 8 19 C13.28 19 18.56 19 24 19 C24 17.35 24 15.7 24 14 C18.72 14 13.44 14 8 14 C8 11.69 8 9.38 8 7 C13.94 7 19.88 7 26 7 C26 5.35 26 3.7 26 2 C18.08 2 10.16 2 2 2 C1.67 3.98 1.34 5.96 1 8 C0.67 8 0.34 8 0 8 C0 5.36 0 2.72 0 0 Z " fill="#392B0E" transform="translate(456,218)"/>
<path d="M0 0 C1.32 0 2.64 0 4 0 C4.8125 1.625 4.8125 1.625 5 4 C3.80552533 5.43127403 2.60687646 6.85936039 1.38305664 8.265625 C-0.9253831 11.16044511 -2.51765535 14.39663658 -4.1875 17.6875 C-7.82741935 24.74112903 -7.82741935 24.74112903 -10 28 C-10 24 -10 24 -9.0625 22.1875 C-7.61323623 19.20372165 -7.37763424 16.27283006 -7 13 C-7.99 13 -8.98 13 -10 13 C-10 12.01 -10 11.02 -10 10 C-11.32 9.67 -12.64 9.34 -14 9 C-14 8.01 -14 7.02 -14 6 C-15.32 5.67 -16.64 5.34 -18 5 C-17.67 4.34 -17.34 3.68 -17 3 C-16.0925 3.185625 -15.185 3.37125 -14.25 3.5625 C-11.31685676 3.95734621 -9.7355343 3.94691572 -7 3 C-6.34 4.32 -5.68 5.64 -5 7 C-4.01 6.67 -3.02 6.34 -2 6 C-1.32843384 4.06381575 -1.32843384 4.06381575 -1 2 C-0.67 1.34 -0.34 0.68 0 0 Z " fill="#916C15" transform="translate(289,188)"/>
<path d="M0 0 C1.79429009 0.03798986 3.58720527 0.15530545 5.375 0.3125 C6.84066406 0.43044922 6.84066406 0.43044922 8.3359375 0.55078125 C11 1 11 1 14 3 C14.33 2.34 14.66 1.68 15 1 C15.99 1 16.98 1 18 1 C19.35439668 3.70879335 19.06501451 6.00933268 19 9 C18.34 9 17.68 9 17 9 C17.33 10.32 17.66 11.64 18 13 C17.01 13.66 16.02 14.32 15 15 C15.33 15.66 15.66 16.32 16 17 C15.01 17 14.02 17 13 17 C13 15.68 13 14.36 13 13 C12.07316406 12.93941406 11.14632813 12.87882813 10.19140625 12.81640625 C8.99386719 12.73261719 7.79632813 12.64882812 6.5625 12.5625 C5.36753906 12.48128906 4.17257812 12.40007812 2.94140625 12.31640625 C0 12 0 12 -1 11 C-1.09823937 9.33570949 -1.12973631 7.66718069 -1.125 6 C-1.12757813 5.0925 -1.13015625 4.185 -1.1328125 3.25 C-1 1 -1 1 0 0 Z M2 3 C2 4.98 2 6.96 2 9 C4.97 9 7.94 9 11 9 C11.66 7.68 12.32 6.36 13 5 C9.36576791 2.67409146 6.22911669 2.83734167 2 3 Z " fill="#D9A742" transform="translate(368,223)"/>
<path d="M0 0 C7.92 0 15.84 0 24 0 C24 1.65 24 3.3 24 5 C23.01257813 5.06058594 22.02515625 5.12117187 21.0078125 5.18359375 C19.72648437 5.26738281 18.44515625 5.35117188 17.125 5.4375 C15.84882813 5.51871094 14.57265625 5.59992188 13.2578125 5.68359375 C10.11699848 5.79206027 10.11699848 5.79206027 8 7 C7.34444881 9.52733235 7.34444881 9.52733235 7 12 C6.67 12 6.34 12 6 12 C5.67 9.69 5.34 7.38 5 5 C4.01 5.33 3.02 5.66 2 6 C1.67 13.92 1.34 21.84 1 30 C0.67 30 0.34 30 0 30 C0 20.1 0 10.2 0 0 Z " fill="#A3812F" transform="translate(160,220)"/>
<path d="M0 0 C0.33 0 0.66 0 1 0 C1 10.23 1 20.46 1 31 C9.25 31 17.5 31 26 31 C26 29.35 26 27.7 26 26 C20.06 26 14.12 26 8 26 C8.33 25.34 8.66 24.68 9 24 C14.94 24 20.88 24 27 24 C27 26.97 27 29.94 27 33 C17.76 33 8.52 33 -1 33 C-1.020625 28.854375 -1.04125 24.70875 -1.0625 20.4375 C-1.071604 19.14384521 -1.08070801 17.85019043 -1.09008789 16.51733398 C-1.10358782 10.9052838 -1.03007465 5.52347116 0 0 Z " fill="#1D1108" transform="translate(457,219)"/>
<path d="M0 0 C3.625 -0.1875 3.625 -0.1875 7 0 C8.86432216 3.14604365 9.52098431 5.3531098 9 9 C7.3125 12.3125 7.3125 12.3125 5 15 C2.4375 15.6875 2.4375 15.6875 0 15 C-1.875 12.9375 -1.875 12.9375 -3 10 C-2.78117292 5.76934307 -2.36113721 3.54170582 0 0 Z " fill="#D1A644" transform="translate(56,226)"/>
<path d="M0 0 C8.91 0 17.82 0 27 0 C27 2.64 27 5.28 27 8 C21.72 8 16.44 8 11 8 C11 7.67 11 7.34 11 7 C15.62 7 20.24 7 25 7 C25 5.35 25 3.7 25 2 C17.08 2 9.16 2 1 2 C1 12.23 1 22.46 1 33 C9.91 32.67 18.82 32.34 28 32 C28 32.66 28 33.32 28 34 C18.76 34 9.52 34 0 34 C0 22.78 0 11.56 0 0 Z " fill="#332A10" transform="translate(159,218)"/>
<path d="M0 0 C5.61 0 11.22 0 17 0 C16.67 0.66 16.34 1.32 16 2 C13.27734375 2.4140625 13.27734375 2.4140625 9.9375 2.625 C8.83277344 2.69976562 7.72804688 2.77453125 6.58984375 2.8515625 C5.73519531 2.90054688 4.88054687 2.94953125 4 3 C4 6.3 4 9.6 4 13 C8.455 13.99 8.455 13.99 13 15 C13 15.33 13 15.66 13 16 C10.03 16.33 7.06 16.66 4 17 C3.67 20.3 3.34 23.6 3 27 C2.34 27 1.68 27 1 27 C-0.3308911 24.33821779 -0.11268993 22.31260604 -0.09765625 19.3359375 C-0.09443359 18.21445313 -0.09121094 17.09296875 -0.08789062 15.9375 C-0.07951172 14.761875 -0.07113281 13.58625 -0.0625 12.375 C-0.05798828 11.19164062 -0.05347656 10.00828125 -0.04882812 8.7890625 C-0.03701478 5.85935361 -0.0190789 2.92967059 0 0 Z " fill="#DFAB38" transform="translate(364,221)"/>
<path d="M0 0 C0 0.99 0 1.98 0 3 C-0.928125 2.9175 -1.85625 2.835 -2.8125 2.75 C-5.99616753 2.69066452 -5.99616753 2.69066452 -7.875 4.5625 C-9.71471108 8.54854067 -9.47843554 12.18194493 -8.375 16.375 C-7.00821449 18.25714151 -7.00821449 18.25714151 -4.1875 19.0625 C-0.78658027 19.36417087 -0.78658027 19.36417087 1.5 16.5 C2.325 15.675 3.15 14.85 4 14 C7.4526481 14 9.21393887 14.34494906 11.875 16.5625 C12.24625 17.036875 12.6175 17.51125 13 18 C9.7008769 23.4985385 7.12027063 26.18872963 0.875 27.8125 C-2 28 -2 28 -5 26 C-3.98679687 25.85304687 -3.98679687 25.85304687 -2.953125 25.703125 C2.67441002 24.80726836 2.67441002 24.80726836 7.5625 22.0625 C9.16886054 19.96511417 9.16886054 19.96511417 10 17 C7.66834966 16.66501699 7.66834966 16.66501699 5 17 C4.401875 17.66 3.80375 18.32 3.1875 19 C0.76910381 21.21110509 0.14310681 21.36056458 -3 21.5 C-6.05832141 21.34622965 -6.88438633 21.08596914 -9.4375 19.1875 C-12.27287073 15.21798098 -12.40416083 11.76909777 -12 7 C-8.57424096 0.83363373 -6.8885319 -0.14975069 0 0 Z " fill="#31210B" transform="translate(443,224)"/>
<path d="M0 0 C2.68125 -0.0825 5.3625 -0.165 8.125 -0.25 C8.95789551 -0.28641602 9.79079102 -0.32283203 10.64892578 -0.36035156 C15.91831666 -0.43830485 18.80529574 0.54704222 23 4 C25.85101475 7.0410824 26 7.6256112 26 12 C25.01 11.67 24.02 11.34 23 11 C22.87625 10.195625 22.7525 9.39125 22.625 8.5625 C22.41875 7.716875 22.2125 6.87125 22 6 C21.34 5.67 20.68 5.34 20 5 C19.67 6.32 19.34 7.64 19 9 C18.01 7.68 17.02 6.36 16 5 C16.99 5 17.98 5 19 5 C19 4.34 19 3.68 19 3 C15.43928688 1.95117609 11.94472103 1.69613047 8.25 1.4375 C7.07953125 1.35371094 5.9090625 1.26992187 4.703125 1.18359375 C3.81109375 1.12300781 2.9190625 1.06242188 2 1 C2.33 1.99 2.66 2.98 3 4 C2.67 4.99 2.34 5.98 2 7 C1.85222064 8.69867188 1.75252934 10.40177489 1.68359375 12.10546875 C1.62075195 13.57983398 1.62075195 13.57983398 1.55664062 15.08398438 C1.51732422 16.10814453 1.47800781 17.13230469 1.4375 18.1875 C1.39431641 19.22326172 1.35113281 20.25902344 1.30664062 21.32617188 C1.20055634 23.8839819 1.09849854 26.44188845 1 29 C3.25071906 28.9127395 5.50063388 28.80455885 7.75 28.6875 C9.00296875 28.62949219 10.2559375 28.57148438 11.546875 28.51171875 C15.03076463 27.99544099 16.47889796 27.3746744 19 25 C19.99 25.66 20.98 26.32 22 27 C16.98093811 30.01618704 13.27875711 30.38529398 7.625 30.1875 C3.850625 30.0946875 3.850625 30.0946875 0 30 C0 20.1 0 10.2 0 0 Z " fill="#D0A84E" transform="translate(129,220)"/>
<path d="M0 0 C7.59 0 15.18 0 23 0 C22.67 0.66 22.34 1.32 22 2 C15.07 1.67 8.14 1.34 1 1 C1 10.24 1 19.48 1 29 C8.26 29 15.52 29 23 29 C23 28.34 23 27.68 23 27 C21.94039063 27.02320313 20.88078125 27.04640625 19.7890625 27.0703125 C18.4010487 27.08906944 17.0130273 27.10726972 15.625 27.125 C14.57699219 27.15013672 14.57699219 27.15013672 13.5078125 27.17578125 C11.67102514 27.19344267 9.83398037 27.10303261 8 27 C7.34 26.34 6.68 25.68 6 25 C12.27 25 18.54 25 25 25 C25 26.65 25 28.3 25 30 C16.75 30 8.5 30 0 30 C0 20.1 0 10.2 0 0 Z " fill="#CCA750" transform="translate(458,220)"/>
<path d="M0 0 C2.05078125 0.03255208 4.1015625 0.06510417 6.15234375 0.09765625 C7.47234375 4.05765625 8.79234375 8.01765625 10.15234375 12.09765625 C8.15234375 11.09765625 6.15234375 10.09765625 4.15234375 9.09765625 C4.81234375 12.06765625 5.47234375 15.03765625 6.15234375 18.09765625 C3.18234375 18.09765625 0.21234375 18.09765625 -2.84765625 18.09765625 C-2.3956938 16.491683 -1.93583298 14.88793117 -1.47265625 13.28515625 C-1.21742188 12.39183594 -0.9621875 11.49851563 -0.69921875 10.578125 C0.15234375 8.09765625 0.15234375 8.09765625 2.15234375 5.09765625 C3.47234375 5.42765625 4.79234375 5.75765625 6.15234375 6.09765625 C5.82234375 4.77765625 5.49234375 3.45765625 5.15234375 2.09765625 C4.25515625 2.37609375 4.25515625 2.37609375 3.33984375 2.66015625 C1.15234375 3.09765625 1.15234375 3.09765625 -1.84765625 2.09765625 C-1.98042969 2.72414062 -2.11320312 3.350625 -2.25 3.99609375 C-2.51490234 5.22199219 -2.51490234 5.22199219 -2.78515625 6.47265625 C-2.95917969 7.28476563 -3.13320313 8.096875 -3.3125 8.93359375 C-3.84765625 11.09765625 -3.84765625 11.09765625 -4.84765625 13.09765625 C-5.50765625 12.76765625 -6.16765625 12.43765625 -6.84765625 12.09765625 C-6.20523731 10.28394325 -5.55862506 8.47171501 -4.91015625 6.66015625 C-4.55050781 5.65082031 -4.19085938 4.64148438 -3.8203125 3.6015625 C-2.47201982 0.13065644 -2.47201982 0.13065644 0 0 Z M1.15234375 10.09765625 C0.82234375 12.07765625 0.49234375 14.05765625 0.15234375 16.09765625 C1.14234375 16.09765625 2.13234375 16.09765625 3.15234375 16.09765625 C2.82234375 14.11765625 2.49234375 12.13765625 2.15234375 10.09765625 C1.82234375 10.09765625 1.49234375 10.09765625 1.15234375 10.09765625 Z " fill="#C9A246" transform="translate(276.84765625,219.90234375)"/>
<path d="M0 0 C2.125 0 2.125 0 5 1 C6.66396967 2.97463408 8.07392948 5.01772995 9.47265625 7.1875 C11.24675058 9.2928191 12.31890877 9.63098959 15 10 C15 11.32 15 12.64 15 14 C14.01 14.33 13.02 14.66 12 15 C11.34 14.67 10.68 14.34 10 14 C10 13.34 10 12.68 10 12 C10.99 11.67 11.98 11.34 13 11 C12.01 11 11.02 11 10 11 C10.36453319 14.73646518 11.12417484 17.45381785 13.0625 20.625 C15 24 15 24 15 28 C11.60011284 26.30005642 10.55204232 22.48879135 8.9375 19.1875 C8.57333984 18.46240234 8.20917969 17.73730469 7.83398438 16.99023438 C5.10734994 11.48152561 5.10734994 11.48152561 4.51782227 8.8371582 C4.1630124 6.77800434 4.1630124 6.77800434 1.9375 5.75 C1.298125 5.5025 0.65875 5.255 0 5 C0 3.35 0 1.7 0 0 Z " fill="#7E6523" transform="translate(233,188)"/>
<path d="M0 0 C7 0 7 0 8.53125 1.328125 C8.8509375 1.96234375 9.170625 2.5965625 9.5 3.25 C9.88414062 3.97058594 10.26828125 4.69117188 10.6640625 5.43359375 C11.10492188 6.28050781 11.54578125 7.12742188 12 8 C13.29013915 10.10510359 14.58186342 12.20923636 15.875 14.3125 C17.7421875 17.36328125 17.7421875 17.36328125 19 20 C18.67 20.99 18.34 21.98 18 23 C17.34 23 16.68 23 16 23 C15.67 21.35 15.34 19.7 15 18 C14.34 19.32 13.68 20.64 13 22 C10.69 17.38 8.38 12.76 6 8 C6.66 8 7.32 8 8 8 C7.67 6.35 7.34 4.7 7 3 C5.02 2.34 3.04 1.68 1 1 C1 6.28 1 11.56 1 17 C0.67 17 0.34 17 0 17 C0 11.39 0 5.78 0 0 Z " fill="#CFA548" transform="translate(190,220)"/>
<path d="M0 0 C1.16213504 3.48640512 0.99110102 6.21357548 0.83984375 9.84375 C0.84461682 12.29943268 0.84461682 12.29943268 3 15 C6.56462646 15.92990255 9.5302833 16.41358829 13 15 C13.33 14.34 13.66 13.68 14 13 C11.36 13 8.72 13 6 13 C5.95758277 10.66705225 5.95907063 8.33297433 6 6 C7 5 7 5 9.109375 4.8671875 C17.84891548 4.89304413 17.84891548 4.89304413 22 6 C22 6.33 22 6.66 22 7 C17.38 7 12.76 7 8 7 C8 8.65 8 10.3 8 12 C10.64 12 13.28 12 16 12 C15.625 14.4375 15.625 14.4375 15 17 C12.56045342 18.21977329 10.84694151 18.20153813 8.125 18.25 C7.26132812 18.27578125 6.39765625 18.3015625 5.5078125 18.328125 C2.48966259 17.93322688 1.1813276 17.09329196 -1 15 C-1.92867074 12.21398777 -2.16342217 10.38933911 -2.1875 7.5 C-2.20167969 6.7265625 -2.21585938 5.953125 -2.23046875 5.15625 C-2 3 -2 3 0 0 Z " fill="#322209" transform="translate(26,227)"/>
<path d="M0 0 C5.94 0 11.88 0 18 0 C18 0.33 18 0.66 18 1 C12.39 1 6.78 1 1 1 C1 10.24 1 19.48 1 29 C5.62 29 10.24 29 15 29 C15 28.34 15 27.68 15 27 C12.03 27 9.06 27 6 27 C6 26.67 6 26.34 6 26 C8.22843488 25.80399423 10.45779893 25.61853431 12.6875 25.4375 C13.92886719 25.33308594 15.17023438 25.22867188 16.44921875 25.12109375 C19.55835533 25.01506159 22.00810972 25.22771475 25 26 C22.78051951 28.55240256 21.29967349 29.37637215 18 30 C16.55901569 30.07766084 15.11491371 30.10796367 13.671875 30.09765625 C12.9509668 30.09515869 12.23005859 30.09266113 11.48730469 30.09008789 C10.58399414 30.08098389 9.68068359 30.07187988 8.75 30.0625 C5.8625 30.041875 2.975 30.02125 0 30 C0 20.1 0 10.2 0 0 Z " fill="#D2AA4E" transform="translate(234,220)"/>
<path d="M0 0 C9 0 9 0 12.0625 1.875 C14.79376084 6.28025942 15.00187438 9.94922834 14 15 C12.0625 18.125 12.0625 18.125 9 20 C6.03 20 3.06 20 0 20 C0 13.4 0 6.8 0 0 Z M2 1 C2 6.61 2 12.22 2 18 C8.36402608 18.60024505 8.36402608 18.60024505 10.875 16.875 C13.12462938 13.1256177 13.20428723 9.96572143 12.3125 5.75 C11.24128626 2.96474737 11.24128626 2.96474737 9.1875 1.625 C6.57790243 0.77106573 6.57790243 0.77106573 2 1 Z " fill="#2C1F09" transform="translate(135,225)"/>
<path d="M0 0 C2.97 0 5.94 0 9 0 C9 11.22 9 22.44 9 34 C6.69 34 4.38 34 2 34 C2 33.67 2 33.34 2 33 C4.475 32.505 4.475 32.505 7 32 C7 22.1 7 12.2 7 2 C5.35 2 3.7 2 2 2 C1.67 6.29 1.34 10.58 1 15 C0.67 15 0.34 15 0 15 C0 10.05 0 5.1 0 0 Z " fill="#51411F" transform="translate(208,218)"/>
<path d="M0 0 C1.32 0.66 2.64 1.32 4 2 C4 3.32 4 4.64 4 6 C4.66 6.33 5.32 6.66 6 7 C6.32374517 12.50366792 6.53286034 16.43672206 3 21 C2.67 20.01 2.34 19.02 2 18 C0.68 18 -0.64 18 -2 18 C-1.505 16.515 -1.505 16.515 -1 15 C-0.9322181 12.22517841 -1.00209735 9.46615308 -1.0625 6.69140625 C-1.00619427 4.26674056 -0.69885031 2.3094819 0 0 Z " fill="#D2A744" transform="translate(149,225)"/>
<path d="M0 0 C2.1640625 -0.29296875 2.1640625 -0.29296875 4.625 -0.1875 C5.44226563 -0.16042969 6.25953125 -0.13335937 7.1015625 -0.10546875 C8.04128906 -0.05326172 8.04128906 -0.05326172 9 0 C9.33 1.32 9.66 2.64 10 4 C9.01 4.33 8.02 4.66 7 5 C7.33 5.99 7.66 6.98 8 8 C3.58774263 9.47075246 0.51718381 10.36884358 -4 9 C-2.94124926 5.59687262 -1.99097846 2.98646769 0 0 Z " fill="#DCAB3F" transform="translate(66,234)"/>
<path d="M0 0 C0.66 0 1.32 0 2 0 C2.83919398 2.26882087 3.67151724 4.53977027 4.5 6.8125 C4.73847656 7.45509766 4.97695313 8.09769531 5.22265625 8.75976562 C6.27068746 11.64933739 7 13.90076061 7 17 C4.03 17 1.06 17 -2 17 C-5 11.25 -5 11.25 -5 9 C-9.455 9.495 -9.455 9.495 -14 10 C-14.66 11.65 -15.32 13.3 -16 15 C-16.66 15 -17.32 15 -18 15 C-16.125 8.125 -16.125 8.125 -15 7 C-13.14712498 6.92773498 -11.29166122 6.9161878 -9.4375 6.9375 C-8.42558594 6.94652344 -7.41367187 6.95554688 -6.37109375 6.96484375 C-5.19740234 6.98224609 -5.19740234 6.98224609 -4 7 C-3.4140625 8.79036458 -2.828125 10.58072917 -2.2421875 12.37109375 C-1.00920398 14.34696559 -1.00920398 14.34696559 2.1171875 14.72265625 C3.54417969 14.85994141 3.54417969 14.85994141 5 15 C4.6390625 14.08476562 4.278125 13.16953125 3.90625 12.2265625 C3.4421875 11.03804687 2.978125 9.84953125 2.5 8.625 C2.0359375 7.44164062 1.571875 6.25828125 1.09375 5.0390625 C0 2 0 2 0 0 Z " fill="#28190A" transform="translate(417,235)"/>
<path d="M0 0 C10.15317287 -0.63019694 10.15317287 -0.63019694 13.6875 2 C14.120625 2.66 14.55375 3.32 15 4 C13.35142456 5.99093137 12.46030938 6.91353305 9.87890625 7.3984375 C3.57164307 7.33462033 3.57164307 7.33462033 0.4375 5.5 C-0.036875 5.005 -0.51125 4.51 -1 4 C-0.67 2.68 -0.34 1.36 0 0 Z " fill="#B59241" transform="translate(65,250)"/>
<path d="M0 0 C4.95 0 9.9 0 15 0 C14.67 0.66 14.34 1.32 14 2 C10.04 2 6.08 2 2 2 C2 11.9 2 21.8 2 32 C1.34 32 0.68 32 0 32 C0 21.44 0 10.88 0 0 Z " fill="#4A3A15" transform="translate(127,218)"/>
<path d="M0 0 C4.76063621 -0.32831974 7.17575152 -0.41212424 11.5 1.75 C12.325 2.4925 13.15 3.235 14 4 C14 5.32 14 6.64 14 8 C9.66130162 8.25521755 6.03320318 8.4006298 1.9375 6.8125 C0 5 0 5 -0.3125 2.3125 C-0.209375 1.549375 -0.10625 0.78625 0 0 Z " fill="#D4A946" transform="translate(72,216)"/>
<path d="M0 0 C0.33 0.66 0.66 1.32 1 2 C0.649375 2.9075 0.29875 3.815 -0.0625 4.75 C-1.18025514 8.62488448 -0.5601175 10.35972583 1 14 C-2 16 -2 16 -5 15.75 C-9.10935359 13.35287707 -9.45400867 10.85643779 -10.65234375 6.41015625 C-11 4 -11 4 -10 1 C-9.34 2.32 -8.68 3.64 -8 5 C-5.62694422 5.41780879 -5.62694422 5.41780879 -3 5 C-1.1375562 2.59141286 -1.1375562 2.59141286 0 0 Z " fill="#1F1303" transform="translate(64,235)"/>
<path d="M0 0 C5.61 0.33 11.22 0.66 17 1 C17 1.33 17 1.66 17 2 C12.05 2 7.1 2 2 2 C2 11.9 2 21.8 2 32 C1.34 32 0.68 32 0 32 C0 21.44 0 10.88 0 0 Z " fill="#463512" transform="translate(232,218)"/>
<path d="M0 0 C4.50781853 1.50260618 7.66065102 2.73412834 10 7 C10 7.66 10 8.32 10 9 C7.8125 9.75 7.8125 9.75 5 10 C4.21625 9.360625 3.4325 8.72125 2.625 8.0625 C-0.7423476 5.41672688 -2.82593893 5.67262266 -7 6 C-7 5.34 -7 4.68 -7 4 C-5.02 3.67 -3.04 3.34 -1 3 C-3.97 2.67 -6.94 2.34 -10 2 C-6.24171538 -0.50552308 -4.46348506 -0.37195709 0 0 Z " fill="#C9A148" transform="translate(443,219)"/>
<path d="M0 0 C1.98 0 3.96 0 6 0 C7.57489237 4.19615907 9.14120605 8.39539014 10.69970703 12.59765625 C11.23089701 14.02626238 11.76440643 15.45400834 12.30029297 16.88085938 C13.07092396 18.93396903 13.83311379 20.9900449 14.59375 23.046875 C15.05458984 24.28276367 15.51542969 25.51865234 15.99023438 26.79199219 C17 30 17 30 17 34 C14.03 34 11.06 34 8 34 C8 33.34 8 32.68 8 32 C10.31 32 12.62 32 15 32 C14.7733667 31.410979 14.5467334 30.82195801 14.31323242 30.21508789 C13.26927154 27.49834137 12.22837122 24.78043168 11.1875 22.0625 C10.83107422 21.13630859 10.47464844 20.21011719 10.10742188 19.25585938 C9.75615234 18.33740234 9.40488281 17.41894531 9.04296875 16.47265625 C8.69282715 15.55887207 8.34268555 14.64508789 7.98193359 13.70361328 C6.79560906 10.43723886 5.81380728 7.12727921 4.8996582 3.77514648 C3.71747892 1.44254797 2.38235961 0.94214682 0 0 Z " fill="#342509" transform="translate(278,218)"/>
<path d="M0 0 C1.66832577 2.50248865 2.62381674 4.41149187 3.625 7.1875 C3.88539063 7.90292969 4.14578125 8.61835938 4.4140625 9.35546875 C4.60742188 9.89816406 4.80078125 10.44085938 5 11 C5.66 11 6.32 11 7 11 C6.67 8.03 6.34 5.06 6 2 C10.22029765 6.22029765 11.10964741 10.27630481 12 16 C11.34 16 10.68 16 10 16 C10 15.01 10 14.02 10 13 C5.38 13 0.76 13 -4 13 C-1.125 2.25 -1.125 2.25 0 0 Z M0 5 C-0.33 6.98 -0.66 8.96 -1 11 C-0.01 11 0.98 11 2 11 C1.67 9.02 1.34 7.04 1 5 C0.67 5 0.34 5 0 5 Z " fill="#AB893D" transform="translate(407,225)"/>
<path d="M0 0 C2.31 0 4.62 0 7 0 C6.67 1.65 6.34 3.3 6 5 C6.60328125 5.07089844 7.2065625 5.14179688 7.828125 5.21484375 C10.81922654 6.29615924 11.33377246 7.76938457 12.75 10.5625 C13.17796875 11.38878906 13.6059375 12.21507812 14.046875 13.06640625 C14.36140625 13.70449219 14.6759375 14.34257812 15 15 C11.6875 15.3125 11.6875 15.3125 8 15 C4.7894164 11.46835804 4.45498094 7.64080557 4 3 C3.34 3 2.68 3 2 3 C2 2.34 2 1.68 2 1 C1.34 0.67 0.68 0.34 0 0 Z " fill="#DCAB39" transform="translate(375,235)"/>
<path d="M0 0 C9.9 0 19.8 0 30 0 C30.33 0.99 30.66 1.98 31 3 C20.77 3 10.54 3 0 3 C0 2.01 0 1.02 0 0 Z " fill="#DFC26F" transform="translate(248,214)"/>
<path d="M0 0 C3.3 0 6.6 0 10 0 C9.66666667 2 9.33333333 4 9 6 C8.9175 7.0725 8.835 8.145 8.75 9.25 C8 12 8 12 6.0625 13.375 C1.69648124 14.26602424 -2.56076747 14.15515764 -7 14 C-6.67 13.34 -6.34 12.68 -6 12 C-4.00476453 11.77103855 -2.00924807 11.54393876 -0.01171875 11.3359375 C2.69980321 10.88313966 4.17569628 10.05234168 6 8 C6 6.68 6 5.36 6 4 C3.03 3.505 3.03 3.505 0 3 C0 2.01 0 1.02 0 0 Z " fill="#DBAA40" transform="translate(35,235)"/>
<path d="M0 0 C-0.125 2.25 -0.125 2.25 -1 5 C-4.40177364 7.99680059 -6.32144972 8.95622256 -10.875 9.25 C-11.90625 9.1675 -12.9375 9.085 -14 9 C-13.62609468 6.42665165 -13.3032769 5.26926453 -11.328125 3.515625 C-4.42124655 -0.69081977 -4.42124655 -0.69081977 0 0 Z " fill="#CFA644" transform="translate(71,216)"/>
<path d="M0 0 C3.3 0 6.6 0 10 0 C9.34 0.66 8.68 1.32 8 2 C6.02 2 4.04 2 2 2 C2 11.9 2 21.8 2 32 C0 30 0 30 -0.22705078 27.01904297 C-0.21657715 25.77268066 -0.20610352 24.52631836 -0.1953125 23.2421875 C-0.1924826 22.57913605 -0.18965271 21.91608459 -0.18673706 21.23294067 C-0.17553435 19.11344417 -0.15043051 16.99436896 -0.125 14.875 C-0.11497028 13.43880818 -0.10584441 12.00260975 -0.09765625 10.56640625 C-0.075595 7.04413372 -0.04106494 3.52210797 0 0 Z " fill="#483616" transform="translate(100,218)"/>
<path d="M0 0 C2.64 0 5.28 0 8 0 C8 0.66 8 1.32 8 2 C6.02 2 4.04 2 2 2 C2 11.9 2 21.8 2 32 C1.34 32 0.68 32 0 32 C0 21.44 0 10.88 0 0 Z " fill="#56441C" transform="translate(296,218)"/>
<path d="M0 0 C3.3 0 6.6 0 10 0 C12.64 4.62 15.28 9.24 18 14 C18.33 14 18.66 14 19 14 C19.33 9.38 19.66 4.76 20 0 C20.33 0 20.66 0 21 0 C21 7.59 21 15.18 21 23 C16.53599497 17.41999371 16.53599497 17.41999371 14.921875 14.046875 C14.38626953 12.995 14.38626953 12.995 13.83984375 11.921875 C13.11010016 10.46761896 12.3992124 9.00375521 11.70703125 7.53125 C9.68585121 3.47836937 9.68585121 3.47836937 5.91992188 1.29492188 C3.46315674 0.94004529 3.46315674 0.94004529 0 1 C0 0.67 0 0.34 0 0 Z " fill="#2D1C08" transform="translate(189,219)"/>
<path d="M0 0 C5 0 5 0 6.875 1.75 C8 4 8 4 7.6875 6.25 C7.460625 6.8275 7.23375 7.405 7 8 C6.01 7.67 5.02 7.34 4 7 C3.67 10.3 3.34 13.6 3 17 C2.67 16.34 2.34 15.68 2 15 C1.34 15 0.68 15 0 15 C0 10.05 0 5.1 0 0 Z " fill="#DDAB3D" transform="translate(191,221)"/>
<path d="M0 0 C5.61 0 11.22 0 17 0 C17 2.64 17 5.28 17 8 C11.72 8 6.44 8 1 8 C1 9.65 1 11.3 1 13 C0.01 13.495 0.01 13.495 -1 14 C-1 11.36 -1 8.72 -1 6 C4.28 6 9.56 6 15 6 C15 4.35 15 2.7 15 1 C10.05 1 5.1 1 0 1 C0 0.67 0 0.34 0 0 Z " fill="#2F210A" transform="translate(465,231)"/>
<path d="M0 0 C7.59 0 15.18 0 23 0 C23 1.32 23 2.64 23 4 C20.5622037 4.05397335 18.12560315 4.09365616 15.6875 4.125 C14.65206055 4.15013672 14.65206055 4.15013672 13.59570312 4.17578125 C9.82864604 4.21217794 8.21568296 4.14378864 5 2 C3.34450469 1.61500109 1.6777567 1.27206865 0 1 C0 0.67 0 0.34 0 0 Z " fill="#D9AC45" transform="translate(161,220)"/>
<path d="M0 0 C0.66 0.33 1.32 0.66 2 1 C1.49662276 5.40455085 0.36571246 8.05500159 -3 11 C-6.11392431 11.70387078 -8.93681715 11.95900752 -12 11 C-12.99 9.35 -13.98 7.7 -15 6 C-10.05 5.67 -5.1 5.34 0 5 C0 3.35 0 1.7 0 0 Z " fill="#B98D36" transform="translate(78,238)"/>
<path d="M0 0 C0.66 0 1.32 0 2 0 C2 1.32 2 2.64 2 4 C7.94 4 13.88 4 20 4 C20 4.33 20 4.66 20 5 C16.7 5 13.4 5 10 5 C10 5.99 10 6.98 10 8 C8.865625 8.12375 7.73125 8.2475 6.5625 8.375 C4.7990625 8.684375 4.7990625 8.684375 3 9 C2.67 9.66 2.34 10.32 2 11 C1.01 10.67 0.02 10.34 -1 10 C-1.125 2.25 -1.125 2.25 0 0 Z " fill="#DDAA39" transform="translate(163,228)"/>
<path d="M0 0 C2 3.875 2 3.875 2 5 C7.28 5.33 12.56 5.66 18 6 C18 8.64 18 11.28 18 14 C12.39 14 6.78 14 1 14 C0.67 13.34 0.34 12.68 0 12 C5.28 12 10.56 12 16 12 C16 10.35 16 8.7 16 7 C10.72 7 5.44 7 0 7 C0 4.69 0 2.38 0 0 Z " fill="#281604" transform="translate(167,225)"/>
<path d="M0 0 C6.6 0.33 13.2 0.66 20 1 C20 1.99 20 2.98 20 4 C13.07 4 6.14 4 -1 4 C-0.67 2.68 -0.34 1.36 0 0 Z " fill="#DDAB3E" transform="translate(164,245)"/>
<path d="M0 0 C2.97 0 5.94 0 9 0 C9 8.58 9 17.16 9 26 C8.34 26.33 7.68 26.66 7 27 C7 18.75 7 10.5 7 2 C5.02 2 3.04 2 1 2 C0.67 1.34 0.34 0.68 0 0 Z " fill="#594425" transform="translate(323,218)"/>
<path d="M0 0 C0.3152595 5.98993047 -0.31780178 9.63560356 -3 15 C-3.66 15 -4.32 15 -5 15 C-6.56154748 5.31418523 -6.56154748 5.31418523 -4 1 C-2 0 -2 0 0 0 Z " fill="#97782F" transform="translate(94,233)"/>
<path d="M0 0 C0.99 0 1.98 0 3 0 C3 1.32 3 2.64 3 4 C9.27 4.33 15.54 4.66 22 5 C22 5.66 22 6.32 22 7 C14.74 7 7.48 7 0 7 C0 4.69 0 2.38 0 0 Z " fill="#DEAB38" transform="translate(459,242)"/>
<path d="M0 0 C3.97446842 1.27750771 5.29623465 3.70957896 7.265625 7.1484375 C8 9 8 9 8 13 C6.68 13.33 5.36 13.66 4 14 C0.75099398 9.02495953 -0.49940808 6.11774896 0 0 Z " fill="#110B08" transform="translate(87,220)"/>
<path d="M0 0 C0.33 0 0.66 0 1 0 C1.33 2.97 1.66 5.94 2 9 C4.475 9.99 4.475 9.99 7 11 C6.67 11.99 6.34 12.98 6 14 C3.69 13.67 1.38 13.34 -1 13 C-2.6148266 8.91543861 -3.41164374 6.23493122 -2 2 C-1.34 1.34 -0.68 0.68 0 0 Z " fill="#D9AA3B" transform="translate(22,233)"/>
<path d="M0 0 C2.64 0 5.28 0 8 0 C8 0.33 8 0.66 8 1 C6.02 1.33 4.04 1.66 2 2 C2.66 2.66 3.32 3.32 4 4 C3.828125 6.05859375 3.828125 6.05859375 3.25 8.4375 C2.97929687 9.61119141 2.97929687 9.61119141 2.703125 10.80859375 C2 13 2 13 0 16 C0 14.35 0 12.7 0 11 C-1.98 11.99 -1.98 11.99 -4 13 C-3.52140759 11.39566191 -3.04210442 9.79153584 -2.5625 8.1875 C-2.29566406 7.29417969 -2.02882813 6.40085938 -1.75390625 5.48046875 C-1.19612127 3.64526945 -0.60655425 1.81966274 0 0 Z " fill="#CEA647" transform="translate(403,220)"/>
<path d="M0 0 C0.66 0 1.32 0 2 0 C2.33 0.66 2.66 1.32 3 2 C3.66 2 4.32 2 5 2 C6.32 4.64 7.64 7.28 9 10 C9.66 9.67 10.32 9.34 11 9 C10.67 10.65 10.34 12.3 10 14 C7.74754119 11.31158141 6.11786042 9.35358125 5 6 C3.68 6 2.36 6 1 6 C1 6.66 1 7.32 1 8 C-0.95927063 9.7143618 -2.95880212 11.38405168 -5 13 C-3.68833211 8.76230374 -2.01871275 4.94566583 0 1 C0 0.67 0 0.34 0 0 Z " fill="#8D6A1F" transform="translate(261,189)"/>
<path d="M0 0 C0.33 0 0.66 0 1 0 C1.02578125 0.86882812 1.0515625 1.73765625 1.078125 2.6328125 C1.33100237 11.62971756 1.33100237 11.62971756 6 19 C9.43983432 20.80765878 9.43983432 20.80765878 13 22 C14.34080155 22.65151625 15.67608677 23.31481683 17 24 C11.0046738 23.73354106 6.62516314 23.18467141 2 19 C-1.50760647 13.27090943 -1.59533472 7.61737438 -1 1 C-0.67 0.67 -0.34 0.34 0 0 Z " fill="#34260B" transform="translate(17,228)"/>
<path d="M0 0 C1.62463842 -0.05395478 3.24978541 -0.09277195 4.875 -0.125 C5.77992188 -0.14820313 6.68484375 -0.17140625 7.6171875 -0.1953125 C10 0 10 0 12 2 C12.125 4.625 12.125 4.625 12 7 C9.47524538 8.26237731 7.68799534 8.09856404 4.875 8.0625 C3.96492187 8.05347656 3.05484375 8.04445312 2.1171875 8.03515625 C1.41851562 8.02355469 0.71984375 8.01195312 0 8 C0 5.36 0 2.72 0 0 Z M2 2 C2 3.32 2 4.64 2 6 C4.64 6 7.28 6 10 6 C10.33 5.01 10.66 4.02 11 3 C8.04335481 1.5216774 5.25770263 1.93967217 2 2 Z " fill="#32210C" transform="translate(240,224)"/>
<path d="M0 0 C12.89098663 -0.68853935 12.89098663 -0.68853935 16.625 1.75 C18.74466235 3.75810118 20.53465623 5.4763524 22 8 C22 8.99 22 9.98 22 11 C19.03 11.66 16.06 12.32 13 13 C12.34 11.02 11.68 9.04 11 7 C11.8353125 7.7425 11.8353125 7.7425 12.6875 8.5 C15.38162983 10.24754367 16.85375007 10.26218749 20 10 C18.07549958 6.59511463 16.7975751 4.39878755 13.25 2.625 C10.562196 2.10811462 8.44902998 1.95110453 5.75 2 C4.5125 2 3.275 2 2 2 C1.34 1.34 0.68 0.68 0 0 Z " fill="#30240B" transform="translate(433,218)"/>
<path d="M0 0 C0.33 0 0.66 0 1 0 C1.50404808 2.10320063 2.00310508 4.20759791 2.5 6.3125 C2.7784375 7.48425781 3.056875 8.65601563 3.34375 9.86328125 C4 13 4 13 4 16 C4.61875 16.268125 5.2375 16.53625 5.875 16.8125 C8 18 8 18 10 21 C6.49490749 20.43736042 5.04731992 19.34814818 2.8125 16.625 C2.30332031 16.01914063 1.79414062 15.41328125 1.26953125 14.7890625 C-0.9114929 11.71549617 -1.13689666 9.02727434 -1.125 5.375 C-1.12757812 4.57835937 -1.13015625 3.78171875 -1.1328125 2.9609375 C-1 1 -1 1 0 0 Z " fill="#816B3A" transform="translate(52,233)"/>
<path d="M0 0 C1.32 0.33 2.64 0.66 4 1 C4 1.99 4 2.98 4 4 C4.969375 4.12375 5.93875 4.2475 6.9375 4.375 C8.4534375 4.684375 8.4534375 4.684375 10 5 C10.33 5.66 10.66 6.32 11 7 C4.6 7.49230769 4.6 7.49230769 1.5625 5 C1.046875 4.34 0.53125 3.68 0 3 C-0.33 4.32 -0.66 5.64 -1 7 C-3.31 7 -5.62 7 -8 7 C-8 6.34 -8 5.68 -8 5 C-6.576875 4.87625 -6.576875 4.87625 -5.125 4.75 C-1.89538209 4.34925077 -1.89538209 4.34925077 -0.625 1.9375 C-0.41875 1.298125 -0.2125 0.65875 0 0 Z " fill="#20190C" transform="translate(262,180)"/>
<path d="M0 0 C3.65316671 1.24976756 4.78065836 1.67098753 7 5 C6.625 8.1875 6.625 8.1875 6 11 C2.71303767 11.79953138 1.28976808 12.09658936 -2 11 C-1.34 11 -0.68 11 0 11 C-0.66 8.69 -1.32 6.38 -2 4 C-1.01 4.33 -0.02 4.66 1 5 C1 5.66 1 6.32 1 7 C1.66 7 2.32 7 3 7 C3 5.35 3 3.7 3 2 C2.01 2 1.02 2 0 2 C0 1.34 0 0.68 0 0 Z " fill="#CEA13D" transform="translate(252,220)"/>
<path d="M0 0 C0.99 0.66 1.98 1.32 3 2 C3 2.66 3 3.32 3 4 C7.95 4 12.9 4 18 4 C18 4.66 18 5.32 18 6 C11.4 6 4.8 6 -2 6 C-1 1 -1 1 0 0 Z " fill="#DEAC38" transform="translate(301,243)"/>
<path d="M0 0 C1.97909398 -0.02686553 3.95828971 -0.04633375 5.9375 -0.0625 C7.03964844 -0.07410156 8.14179688 -0.08570313 9.27734375 -0.09765625 C12 0 12 0 13 1 C13.25 3.9375 13.25 3.9375 13 7 C9.68629 9.20914 8.6553979 9.22481553 4.8125 9.125 C3.91144531 9.10695312 3.01039063 9.08890625 2.08203125 9.0703125 C1.39496094 9.04710937 0.70789063 9.02390625 0 9 C0 6.03 0 3.06 0 0 Z M1 1 C1 2.98 1 4.96 1 7 C3.97 7 6.94 7 10 7 C10.66 5.68 11.32 4.36 12 3 C8.36576791 0.67409146 5.22911669 0.83734167 1 1 Z " fill="#2E1E07" transform="translate(369,225)"/>
<path d="M0 0 C0.99 0.33 1.98 0.66 3 1 C2.34 5.29 1.68 9.58 1 14 C0.01 14.33 -0.98 14.66 -2 15 C-2.33 11.37 -2.66 7.74 -3 4 C-2.01 3.67 -1.02 3.34 0 3 C0 2.01 0 1.02 0 0 Z " fill="#DEAB3D" transform="translate(429,225)"/>
<path d="M0 0 C2.46301423 2.46301423 2.76766521 4.27360036 3.625 7.625 C3.88539063 8.62789062 4.14578125 9.63078125 4.4140625 10.6640625 C4.60742188 11.43492187 4.80078125 12.20578125 5 13 C2.03 13 -0.94 13 -4 13 C-3.52140759 11.39566191 -3.04210442 9.79153584 -2.5625 8.1875 C-2.29566406 7.29417969 -2.02882813 6.40085938 -1.75390625 5.48046875 C-1.19612127 3.64526945 -0.60655425 1.81966274 0 0 Z M0 5 C-0.33 6.98 -0.66 8.96 -1 11 C-0.01 11 0.98 11 2 11 C1.67 9.02 1.34 7.04 1 5 C0.67 5 0.34 5 0 5 Z " fill="#301B04" transform="translate(278,225)"/>
<path d="M0 0 C0.9075 0.185625 1.815 0.37125 2.75 0.5625 C5.68314324 0.95734621 7.2644657 0.94691572 10 0 C10.33 1.65 10.66 3.3 11 5 C8.64561267 6.42944945 7.51967567 7.08661261 4.75 6.625 C4.1725 6.41875 3.595 6.2125 3 6 C3 5.01 3 4.02 3 3 C1.68 2.67 0.36 2.34 -1 2 C-0.67 1.34 -0.34 0.68 0 0 Z " fill="#8E7128" transform="translate(272,191)"/>
<path d="M0 0 C0.79148437 -0.02578125 1.58296875 -0.0515625 2.3984375 -0.078125 C4.625 0.25 4.625 0.25 6.43359375 1.62890625 C7.625 3.25 7.625 3.25 7.3125 5.4375 C6.9721875 6.3346875 6.9721875 6.3346875 6.625 7.25 C6.274375 6.445625 5.92375 5.64125 5.5625 4.8125 C3.76832716 1.8632233 3.76832716 1.8632233 -0.0625 1.4375 C-1.7021875 1.3446875 -1.7021875 1.3446875 -3.375 1.25 C-3.375 5.21 -3.375 9.17 -3.375 13.25 C-5.025 12.92 -6.675 12.59 -8.375 12.25 C-8.045 11.26 -7.715 10.27 -7.375 9.25 C-7.375 9.91 -7.375 10.57 -7.375 11.25 C-6.715 11.25 -6.055 11.25 -5.375 11.25 C-5.38660156 10.53972656 -5.39820313 9.82945312 -5.41015625 9.09765625 C-5.42369141 7.71900391 -5.42369141 7.71900391 -5.4375 6.3125 C-5.44910156 5.39597656 -5.46070313 4.47945312 -5.47265625 3.53515625 C-5.3027726 -0.44012112 -3.5409862 0.06875701 0 0 Z " fill="#C7A049" transform="translate(372.375,236.75)"/>
<path d="M0 0 C1.85772162 0.08984301 3.71247985 0.24611861 5.5625 0.4375 C7.08037109 0.59025391 7.08037109 0.59025391 8.62890625 0.74609375 C9.80259766 0.87177734 9.80259766 0.87177734 11 1 C11 1.33 11 1.66 11 2 C7.7 2 4.4 2 1 2 C1 4.97 1 7.94 1 11 C2.6045556 10.85851011 4.20863767 10.71164314 5.8125 10.5625 C7.15248047 10.44068359 7.15248047 10.44068359 8.51953125 10.31640625 C11.12743559 10.06510233 11.12743559 10.06510233 14 9 C13.67 9.99 13.34 10.98 13 12 C10.85423363 12.02685938 8.70837355 12.04633088 6.5625 12.0625 C5.36753906 12.07410156 4.17257812 12.08570313 2.94140625 12.09765625 C0 12 0 12 -1 11 C-1.09823937 9.33570949 -1.12973631 7.66718069 -1.125 6 C-1.12757813 5.0925 -1.13015625 4.185 -1.1328125 3.25 C-1 1 -1 1 0 0 Z " fill="#BE9A43" transform="translate(368,223)"/>
<path d="M0 0 C1.32 0 2.64 0 4 0 C4.6875 1.8125 4.6875 1.8125 5 4 C3.75 5.75 3.75 5.75 2 7 C1.01 7 0.02 7 -1 7 C-1.66 8.98 -2.32 10.96 -3 13 C-3.66 11.68 -4.32 10.36 -5 9 C-4.34 8.34 -3.68 7.68 -3 7 C-1.96157435 4.68351201 -0.9578025 2.35096976 0 0 Z " fill="#D8B244" transform="translate(289,188)"/>
<path d="M0 0 C1.65322266 0.01740234 1.65322266 0.01740234 3.33984375 0.03515625 C4.99693359 0.04869141 4.99693359 0.04869141 6.6875 0.0625 C7.54214844 0.07410156 8.39679688 0.08570313 9.27734375 0.09765625 C9.93734375 2.73765625 10.59734375 5.37765625 11.27734375 8.09765625 C10.28734375 8.59265625 10.28734375 8.59265625 9.27734375 9.09765625 C8.61734375 7.11765625 7.95734375 5.13765625 7.27734375 3.09765625 C4.30734375 2.76765625 1.33734375 2.43765625 -1.72265625 2.09765625 C-2.05265625 3.74765625 -2.38265625 5.39765625 -2.72265625 7.09765625 C-3.38265625 7.09765625 -4.04265625 7.09765625 -4.72265625 7.09765625 C-3.68524525 0.1321824 -3.68524525 0.1321824 0 0 Z " fill="#412F12" transform="translate(275.72265625,241.90234375)"/>
<path d="M0 0 C0 0.99 0 1.98 0 3 C-0.928125 2.9175 -1.85625 2.835 -2.8125 2.75 C-6.0197257 2.65429627 -6.0197257 2.65429627 -7.6875 4.6875 C-9.25476002 7.4488629 -9.31178774 9.1013773 -9.1875 12.25 C-9.14689453 13.58804688 -9.14689453 13.58804688 -9.10546875 14.953125 C-9.05326172 15.96632812 -9.05326172 15.96632812 -9 17 C-9.66 17 -10.32 17 -11 17 C-12.20643566 13.38069302 -12.32268559 10.80768995 -12 7 C-8.57424096 0.83363373 -6.8885319 -0.14975069 0 0 Z " fill="#423210" transform="translate(443,224)"/>
<path d="M0 0 C1.37478516 0.01740234 1.37478516 0.01740234 2.77734375 0.03515625 C3.69644531 0.04417969 4.61554688 0.05320313 5.5625 0.0625 C6.27277344 0.07410156 6.98304688 0.08570313 7.71484375 0.09765625 C7.71484375 1.41765625 7.71484375 2.73765625 7.71484375 4.09765625 C2.76484375 4.09765625 -2.18515625 4.09765625 -7.28515625 4.09765625 C-5.96515625 3.10765625 -4.64515625 2.11765625 -3.28515625 1.09765625 C-2.28515625 0.09765625 -2.28515625 0.09765625 0 0 Z " fill="#D6AC4B" transform="translate(472.28515625,232.90234375)"/>
<path d="M0 0 C5.03910432 0.61053994 8.28811789 1.35496723 11.9140625 5.21484375 C11.9140625 5.87484375 11.9140625 6.53484375 11.9140625 7.21484375 C8.9765625 6.83984375 8.9765625 6.83984375 5.9140625 6.21484375 C5.5840625 5.55484375 5.2540625 4.89484375 4.9140625 4.21484375 C2.55807015 3.74732587 2.55807015 3.74732587 -0.1484375 3.58984375 C-1.06753906 3.51507813 -1.98664062 3.4403125 -2.93359375 3.36328125 C-3.64386719 3.31429687 -4.35414062 3.2653125 -5.0859375 3.21484375 C-3.43718566 1.19328496 -2.64932623 0.27287068 0 0 Z " fill="#DDAC3C" transform="translate(32.0859375,219.78515625)"/>
<path d="M0 0 C8.73954048 0.02585663 8.73954048 0.02585663 12.890625 1.1328125 C12.890625 1.4628125 12.890625 1.7928125 12.890625 2.1328125 C8.270625 2.1328125 3.650625 2.1328125 -1.109375 2.1328125 C-1.109375 3.7828125 -1.109375 5.4328125 -1.109375 7.1328125 C1.200625 7.1328125 3.510625 7.1328125 5.890625 7.1328125 C5.890625 7.4628125 5.890625 7.7928125 5.890625 8.1328125 C2.920625 8.1328125 -0.049375 8.1328125 -3.109375 8.1328125 C-3.15179223 5.79986475 -3.15030437 3.46578683 -3.109375 1.1328125 C-2.109375 0.1328125 -2.109375 0.1328125 0 0 Z " fill="#150B06" transform="translate(35.109375,231.8671875)"/>
<path d="M0 0 C0.99 0 1.98 0 3 0 C3 1.32 3 2.64 3 4 C6.63 4.33 10.26 4.66 14 5 C14 5.66 14 6.32 14 7 C9.38 7 4.76 7 0 7 C0 4.69 0 2.38 0 0 Z " fill="#E0AA3A" transform="translate(235,242)"/>
<path d="M0 0 C0.66 0.33 1.32 0.66 2 1 C0.515 3.475 0.515 3.475 -1 6 C0.98 6 2.96 6 5 6 C5 6.33 5 6.66 5 7 C2.69 7 0.38 7 -2 7 C-2.4021875 8.1446875 -2.4021875 8.1446875 -2.8125 9.3125 C-3.94424112 11.87380884 -4.91223401 13.19692938 -7 15 C-6.72694671 8.44672101 -4.18788859 4.93069452 0 0 Z " fill="#463311" transform="translate(58,219)"/>
<path d="M0 0 C1.98 0 3.96 0 6 0 C6 0.66 6 1.32 6 2 C7.32 2.33 8.64 2.66 10 3 C9.67 3.66 9.34 4.32 9 5 C5.625 5.75 5.625 5.75 2 6 C1.01 5.34 0.02 4.68 -1 4 C-0.67 2.68 -0.34 1.36 0 0 Z " fill="#DBAB3C" transform="translate(73,217)"/>
<path d="M0 0 C1.99954746 -0.04254356 4.00041636 -0.04080783 6 0 C7 1 7 1 7.0625 4.5625 C7.041875 5.696875 7.02125 6.83125 7 8 C2.71 8.66 -1.58 9.32 -6 10 C-3.53721199 7.53721199 -1.29323018 7.00228745 2 6 C2 5.34 2 4.68 2 4 C3.5 2.375 3.5 2.375 5 1 C3.35 1 1.7 1 0 1 C0 0.67 0 0.34 0 0 Z " fill="#CD9E32" transform="translate(71,235)"/>
<path d="M0 0 C2.31 0 4.62 0 7 0 C5.68 0.33 4.36 0.66 3 1 C3 2.65 3 4.3 3 6 C5.475 6.99 5.475 6.99 8 8 C7.34 8.66 6.68 9.32 6 10 C3.6171875 9.9765625 3.6171875 9.9765625 0.875 9.625 C-0.03507812 9.51414063 -0.94515625 9.40328125 -1.8828125 9.2890625 C-2.58148438 9.19367188 -3.28015625 9.09828125 -4 9 C-3.195625 8.4225 -2.39125 7.845 -1.5625 7.25 C0.97866739 5.01873107 1.65120368 4.25543229 2 1 C1.34 0.67 0.68 0.34 0 0 Z " fill="#452D07" transform="translate(69,215)"/>
<path d="M0 0 C2.96865509 2.54456151 4.3619751 5.48994665 6 9 C3.69 9 1.38 9 -1 9 C-1.99 7.02 -2.98 5.04 -4 3 C-3.34 3 -2.68 3 -2 3 C-2 3.66 -2 4.32 -2 5 C-1.34 5 -0.68 5 0 5 C0 3.35 0 1.7 0 0 Z " fill="#CCA64C" transform="translate(384,241)"/>
<path d="M0 0 C1.90318884 2.85478326 2.4619099 4.41941308 3.125 7.6875 C3.29257812 8.49574219 3.46015625 9.30398437 3.6328125 10.13671875 C3.75398438 10.75160156 3.87515625 11.36648437 4 12 C2.35 12 0.7 12 -1 12 C-0.01 11.67 0.98 11.34 2 11 C1.34 10.01 0.68 9.02 0 8 C-0.99 9.32 -1.98 10.64 -3 12 C-2.49202991 7.6822542 -1.80317221 3.96697886 0 0 Z " fill="#37230C" transform="translate(407,225)"/>
<path d="M0 0 C0 0.66 0 1.32 0 2 C-5.94 2 -11.88 2 -18 2 C-17.67 1.34 -17.34 0.68 -17 0 C-11.20447483 -1.35639951 -5.85868765 -0.76622676 0 0 Z " fill="#130D06" transform="translate(400,250)"/>
<path d="M0 0 C2.75 -0.25 2.75 -0.25 6 0 C8.375 2 8.375 2 10 4 C6.37 4 2.74 4 -1 4 C-0.67 2.68 -0.34 1.36 0 0 Z " fill="#BD8E30" transform="translate(68,251)"/>
<path d="M0 0 C1.51400391 0.01740234 1.51400391 0.01740234 3.05859375 0.03515625 C4.07050781 0.04417969 5.08242188 0.05320313 6.125 0.0625 C7.29869141 0.07990234 7.29869141 0.07990234 8.49609375 0.09765625 C8.82609375 0.75765625 9.15609375 1.41765625 9.49609375 2.09765625 C5.86609375 2.42765625 2.23609375 2.75765625 -1.50390625 3.09765625 C-2.16390625 4.74765625 -2.82390625 6.39765625 -3.50390625 8.09765625 C-4.16390625 8.09765625 -4.82390625 8.09765625 -5.50390625 8.09765625 C-3.33088446 0.12990969 -3.33088446 0.12990969 0 0 Z " fill="#3B2808" transform="translate(404.50390625,241.90234375)"/>
<path d="M0 0 C0.33 0 0.66 0 1 0 C1.21278058 4.46839215 0.59138085 7.82262526 -1 12 C-0.34 12 0.32 12 1 12 C1 10.68 1 9.36 1 8 C1.99 8.33 2.98 8.66 4 9 C3.34 10.32 2.68 11.64 2 13 C0.02 13 -1.96 13 -4 13 C-3.52140759 11.39566191 -3.04210442 9.79153584 -2.5625 8.1875 C-2.29566406 7.29417969 -2.02882813 6.40085938 -1.75390625 5.48046875 C-1.19612127 3.64526945 -0.60655425 1.81966274 0 0 Z " fill="#CAA34A" transform="translate(268,237)"/>
<path d="M0 0 C1.32 0.66 2.64 1.32 4 2 C3.01 3.485 3.01 3.485 2 5 C-0.1640625 5.29296875 -0.1640625 5.29296875 -2.625 5.1875 C-3.44226563 5.16042969 -4.25953125 5.13335937 -5.1015625 5.10546875 C-6.04128906 5.05326172 -6.04128906 5.05326172 -7 5 C-7 4.01 -7 3.02 -7 2 C-4.69 2 -2.38 2 0 2 C0 1.34 0 0.68 0 0 Z " fill="#DAAC3F" transform="translate(443,245)"/>
<path d="M0 0 C0.66 0.33 1.32 0.66 2 1 C1.49662276 5.40455085 0.36571246 8.05500159 -3 11 C-6.04470835 11.41995977 -8.94724259 11.29353437 -12 11 C-12 10.67 -12 10.34 -12 10 C-9.36 10 -6.72 10 -4 10 C-4.33 8.35 -4.66 6.7 -5 5 C-3.35 5 -1.7 5 0 5 C0 3.35 0 1.7 0 0 Z " fill="#A58134" transform="translate(78,238)"/>
<path d="M0 0 C0.33 0 0.66 0 1 0 C1.33 5.94 1.66 11.88 2 18 C3.98 18.33 5.96 18.66 8 19 C8 19.33 8 19.66 8 20 C5.36 20 2.72 20 0 20 C0 13.4 0 6.8 0 0 Z " fill="#1D0800" transform="translate(135,225)"/>
<path d="M0 0 C1.60407328 -0.02708567 3.2082785 -0.04643483 4.8125 -0.0625 C5.70582031 -0.07410156 6.59914062 -0.08570313 7.51953125 -0.09765625 C10 0 10 0 13 1 C13 2.65 13 4.3 13 6 C12.34 6 11.68 6 11 6 C10.608125 5.525625 10.21625 5.05125 9.8125 4.5625 C7.15993086 2.27580246 4.40320306 2.44115595 1 2 C0.67 1.34 0.34 0.68 0 0 Z " fill="#DFAC3B" transform="translate(242,221)"/>
<path d="M0 0 C0.99 0.33 1.98 0.66 3 1 C3 1.99 3 2.98 3 4 C3.99 4.33 4.98 4.66 6 5 C6 5.99 6 6.98 6 8 C5.34 8 4.68 8 4 8 C4 7.34 4 6.68 4 6 C2.68 5.67 1.36 5.34 0 5 C-0.33 6.65 -0.66 8.3 -1 10 C-2.4783226 7.04335481 -2.06032783 4.25770263 -2 1 C-1.34 0.67 -0.68 0.34 0 0 Z " fill="#E1B438" transform="translate(273,193)"/>
<path d="M0 0 C0.33 1.32 0.66 2.64 1 4 C3.25071906 3.9127395 5.50063388 3.80455885 7.75 3.6875 C9.00296875 3.62949219 10.2559375 3.57148438 11.546875 3.51171875 C15.03076463 2.99544099 16.47889796 2.3746744 19 0 C19.99 0.66 20.98 1.32 22 2 C16.98013301 5.01667085 13.28676196 5.38714622 7.625 5.1875 C6.88894531 5.17396484 6.15289062 5.16042969 5.39453125 5.14648438 C3.59603257 5.11144869 1.79791578 5.05765288 0 5 C0 3.35 0 1.7 0 0 Z " fill="#CAA54E" transform="translate(129,245)"/>
<path d="M0 0 C0.93423645 3.01031744 1.04449911 3.86650268 0 7 C1.32 7.33 2.64 7.66 4 8 C3.67 8.99 3.34 9.98 3 11 C1.02 11 -0.96 11 -3 11 C-2.32829194 7.1936543 -1.27253436 3.64793184 0 0 Z " fill="#CCA249" transform="translate(396,239)"/>
<path d="M0 0 C1.5 1.25 1.5 1.25 3 3 C3 4.32 3 5.64 3 7 C1.02 7 -0.96 7 -3 7 C-3.33 6.34 -3.66 5.68 -4 5 C-2.52830189 1.26415094 -2.52830189 1.26415094 0 0 Z " fill="#DFAA38" transform="translate(58,232)"/>
<path d="M0 0 C0.99 0.33 1.98 0.66 3 1 C3.5326514 7.258654 1.81849506 11.45108785 -1 17 C-1.66 16.67 -2.32 16.34 -3 16 C-2.566875 15.0409375 -2.566875 15.0409375 -2.125 14.0625 C-0.6752275 10.11589708 0.15778062 6.1125393 1 2 C0.01 1.67 -0.98 1.34 -2 1 C-1.34 0.67 -0.68 0.34 0 0 Z " fill="#AA7F22" transform="translate(281,199)"/>
<path d="M0 0 C5.28 0 10.56 0 16 0 C16 0.33 16 0.66 16 1 C12.7 1 9.4 1 6 1 C6 1.99 6 2.98 6 4 C4.35 4 2.7 4 1 4 C0.67 2.68 0.34 1.36 0 0 Z " fill="#BF9A3C" transform="translate(167,232)"/>
<path d="M0 0 C2.31 0 4.62 0 7 0 C7.33 2.31 7.66 4.62 8 7 C7.01 7 6.02 7 5 7 C5 5.68 5 4.36 5 3 C3.35 3 1.7 3 0 3 C0 2.01 0 1.02 0 0 Z " fill="#DDAC38" transform="translate(410,238)"/>
<path d="M0 0 C0.66 0 1.32 0 2 0 C2 0.66 2 1.32 2 2 C3.32 2.66 4.64 3.32 6 4 C5.01 4.33 4.02 4.66 3 5 C1.77030122 8.51190809 1.77030122 8.51190809 1 12 C0.34 11.67 -0.32 11.34 -1 11 C-0.79375 10.236875 -0.5875 9.47375 -0.375 8.6875 C0.33391203 5.78114056 0.33391203 5.78114056 -2 3 C-1.34 3 -0.68 3 0 3 C0 2.01 0 1.02 0 0 Z " fill="#C39B41" transform="translate(253,233)"/>
<path d="M0 0 C0 0.66 0 1.32 0 2 C-3.22791555 4.1519437 -4.28400809 4.20086443 -8 4 C-8.33 4.99 -8.66 5.98 -9 7 C-9.33 5.35 -9.66 3.7 -10 2 C-6.38026598 0.68373308 -3.90432869 0 0 0 Z " fill="#271D09" transform="translate(254,190)"/>
<path d="M0 0 C0.66 0 1.32 0 2 0 C2 2.64 2 5.28 2 8 C0.68 8.33 -0.64 8.66 -2 9 C-1.125 1.125 -1.125 1.125 0 0 Z " fill="#B4913C" transform="translate(92,233)"/>
<path d="M0 0 C1.32 0.66 2.64 1.32 4 2 C2.35 3.32 0.7 4.64 -1 6 C-0.67 6.66 -0.34 7.32 0 8 C-2.64 7.34 -5.28 6.68 -8 6 C-7.67 5.34 -7.34 4.68 -7 4 C-5.02 4 -3.04 4 -1 4 C-0.67 2.68 -0.34 1.36 0 0 Z " fill="#D6B34D" transform="translate(262,183)"/>
<path d="M0 0 C2.97 0 5.94 0 9 0 C9.33 0.66 9.66 1.32 10 2 C7.69 2 5.38 2 3 2 C3 2.66 3 3.32 3 4 C1.68 4 0.36 4 -1 4 C-0.67 2.68 -0.34 1.36 0 0 Z " fill="#DDAB3B" transform="translate(433,221)"/>
<path d="M0 0 C5.445 1.485 5.445 1.485 11 3 C11 3.33 11 3.66 11 4 C9.88625 4.12375 8.7725 4.2475 7.625 4.375 C3.96896323 4.6465813 3.96896323 4.6465813 2 7 C0.5393715 4.35261084 0 3.10551666 0 0 Z " fill="#C79E3D" transform="translate(131,221)"/>
<path d="M0 0 C1.49080078 0.02707031 1.49080078 0.02707031 3.01171875 0.0546875 C3.77097656 0.07789063 4.53023437 0.10109375 5.3125 0.125 C5.3125 0.785 5.3125 1.445 5.3125 2.125 C1.6825 2.125 -1.9475 2.125 -5.6875 2.125 C-5.6875 2.785 -5.6875 3.445 -5.6875 4.125 C-7.0075 4.455 -8.3275 4.785 -9.6875 5.125 C-10.3475 4.135 -11.0075 3.145 -11.6875 2.125 C-10.6975 2.125 -9.7075 2.125 -8.6875 2.125 C-5.26655758 -0.15562828 -4.00562778 -0.09425007 0 0 Z " fill="#312103" transform="translate(70.6875,247.875)"/>
<path d="M0 0 C2.97 0 5.94 0 9 0 C9 0.99 9 1.98 9 3 C6.03 3 3.06 3 0 3 C0 2.01 0 1.02 0 0 Z " fill="#DAAB43" transform="translate(173,233)"/>
<path d="M0 0 C0.556875 0.495 1.11375 0.99 1.6875 1.5 C4.38162983 3.24754367 5.85375007 3.26218749 9 3 C9 2.34 9 1.68 9 1 C9.66 1 10.32 1 11 1 C11 1.99 11 2.98 11 4 C8.03 4.66 5.06 5.32 2 6 C1.34 4.02 0.68 2.04 0 0 Z " fill="#2A1B05" transform="translate(444,225)"/>
<path d="M0 0 C0.99 0.33 1.98 0.66 3 1 C3.70211894 2.65204456 4.36971413 4.31923769 5 6 C5.66 6.33 6.32 6.66 7 7 C5.02 7 3.04 7 1 7 C0.67 4.69 0.34 2.38 0 0 Z " fill="#EEBB2C" transform="translate(265,197)"/>
<path d="M0 0 C0.99 0.33 1.98 0.66 3 1 C1.10595266 4.34243648 0.05908409 4.97997149 -3.6875 6.25 C-5.3271875 6.62125 -5.3271875 6.62125 -7 7 C-4.78071806 4.09197539 -3.07030857 2.04687238 0 0 Z " fill="#9A7D40" transform="translate(87,249)"/>
<path d="M0 0 C3.65316671 1.24976756 4.78065836 1.67098753 7 5 C6.625 8.1875 6.625 8.1875 6 11 C5.67 11 5.34 11 5 11 C4.34 8.03 3.68 5.06 3 2 C2.01 2 1.02 2 0 2 C0 1.34 0 0.68 0 0 Z " fill="#BF9C46" transform="translate(252,220)"/>
<path d="M0 0 C0.66 1.32 1.32 2.64 2 4 C1.01 5.485 1.01 5.485 0 7 C-0.33 6.34 -0.66 5.68 -1 5 C-1.99 5.66 -2.98 6.32 -4 7 C-3.6875 4.625 -3.6875 4.625 -3 2 C-2.01 1.34 -1.02 0.68 0 0 Z " fill="#B6923B" transform="translate(254,191)"/>
<path d="M0 0 C3.3 0 6.6 0 10 0 C9.67 0.99 9.34 1.98 9 3 C6.03 3 3.06 3 0 3 C0 2.01 0 1.02 0 0 Z " fill="#211611" transform="translate(262,249)"/>
<path d="M0 0 C10.15317287 -0.63019694 10.15317287 -0.63019694 13.6875 2 C14.120625 2.66 14.55375 3.32 15 4 C12 4 12 4 9 2 C7.824375 2 6.64875 2 5.4375 2 C4.303125 2 3.16875 2 2 2 C1.34 1.34 0.68 0.68 0 0 Z " fill="#AA873C" transform="translate(65,250)"/>
<path d="M0 0 C0.55171875 0.29648438 1.1034375 0.59296875 1.671875 0.8984375 C4.16123288 2.07628804 6.6060884 2.85965717 9.25 3.625 C10.14203125 3.88539063 11.0340625 4.14578125 11.953125 4.4140625 C12.62859375 4.60742188 13.3040625 4.80078125 14 5 C14 5.33 14 5.66 14 6 C4.19156581 5.38029501 4.19156581 5.38029501 0 2 C0 1.34 0 0.68 0 0 Z " fill="#2A1B04" transform="translate(20,246)"/>
<path d="M0 0 C0.66 0 1.32 0 2 0 C2.33 1.65 2.66 3.3 3 5 C0.03 5 -2.94 5 -6 5 C-5.67 4.34 -5.34 3.68 -5 3 C-3.35 3 -1.7 3 0 3 C0 2.01 0 1.02 0 0 Z " fill="#554216" transform="translate(280,233)"/>
<path d="M0 0 C0.66 0 1.32 0 2 0 C2 1.32 2 2.64 2 4 C-0.97 4 -3.94 4 -7 4 C-7 3.34 -7 2.68 -7 2 C-4.69 2 -2.38 2 0 2 C0 1.34 0 0.68 0 0 Z " fill="#17120A" transform="translate(293,248)"/>
<path d="M0 0 C2.95183101 2.95183101 3.08663988 5.95511947 4 10 C2.02 10 0.04 10 -2 10 C-0.68 9.67 0.64 9.34 2 9 C1.484375 8.2575 0.96875 7.515 0.4375 6.75 C-1 4 -1 4 -0.6875 1.6875 C-0.460625 1.130625 -0.23375 0.57375 0 0 Z " fill="#CBA350" transform="translate(289,240)"/>
<path d="M0 0 C1.36125 0.12375 1.36125 0.12375 2.75 0.25 C2.75 1.24 2.75 2.23 2.75 3.25 C1.38875 3.2190625 1.38875 3.2190625 0 3.1875 C-2.67672588 3.2389755 -4.71988052 3.4715017 -7.25 4.25 C-4.83923194 1.28290085 -3.90322061 0.30024774 0 0 Z " fill="#3F2B09" transform="translate(440.25,223.75)"/>
<path d="M0 0 C1.65 0 3.3 0 5 0 C5.625 2.375 5.625 2.375 6 5 C5.34 5.66 4.68 6.32 4 7 C4 5.68 4 4.36 4 3 C2.68 3 1.36 3 0 3 C0 2.01 0 1.02 0 0 Z " fill="#E0AB35" transform="translate(58,228)"/>
<path d="M0 0 C2.64 0 5.28 0 8 0 C8 0.99 8 1.98 8 3 C5.03 2.67 2.06 2.34 -1 2 C-0.67 1.34 -0.34 0.68 0 0 Z " fill="#E2AA36" transform="translate(37,235)"/>
<path d="M0 0 C1.31471568 0.28151087 2.62675767 0.57553339 3.9375 0.875 C4.66839844 1.03742188 5.39929688 1.19984375 6.15234375 1.3671875 C8 2 8 2 9 4 C6.69 4 4.38 4 2 4 C1.34 2.68 0.68 1.36 0 0 Z " fill="#2E220C" transform="translate(264,183)"/>
<path d="M0 0 C1.32 0 2.64 0 4 0 C3.835 0.598125 3.67 1.19625 3.5 1.8125 C2.8885876 4.11344336 2.8885876 4.11344336 3 7 C2.01 6.67 1.02 6.34 0 6 C0 4.02 0 2.04 0 0 Z " fill="#D6AB34" transform="translate(282,235)"/>
<path d="M0 0 C0 3 0 3 -1 5 C-0.60061233 7.09821215 -0.60061233 7.09821215 0 9 C-1.65 7.35 -3.3 5.7 -5 4 C-3.35 2.68 -1.7 1.36 0 0 Z " fill="#2A1801" transform="translate(387,234)"/>
<path d="M0 0 C0.66 0.33 1.32 0.66 2 1 C1.67 3.64 1.34 6.28 1 9 C0.01 9 -0.98 9 -2 9 C-2 8.34 -2 7.68 -2 7 C-1.34 7 -0.68 7 0 7 C0 4.69 0 2.38 0 0 Z " fill="#C09B4B" transform="translate(387,225)"/>
<path d="M0 0 C0.99 0 1.98 0 3 0 C3 1.32 3 2.64 3 4 C2.34 4 1.68 4 1 4 C1 4.99 1 5.98 1 7 C0.34 7 -0.32 7 -1 7 C-0.67 4.69 -0.34 2.38 0 0 Z " fill="#CCA037" transform="translate(383,224)"/>
<path d="M0 0 C0.99 0.33 1.98 0.66 3 1 C3 2.32 3 3.64 3 5 C1.35 4.67 -0.3 4.34 -2 4 C-1.34 2.68 -0.68 1.36 0 0 Z " fill="#D4A643" transform="translate(448,240)"/>
<path d="M0 0 C1.32 0.66 2.64 1.32 4 2 C4 2.99 4 3.98 4 5 C2.35 5 0.7 5 -1 5 C-0.67 3.35 -0.34 1.7 0 0 Z " fill="#DDA935" transform="translate(149,225)"/>
<path d="M0 0 C0.66 0 1.32 0 2 0 C2.33 1.98 2.66 3.96 3 6 C1.35 6.33 -0.3 6.66 -2 7 C-2 6.34 -2 5.68 -2 5 C-1.34 4.67 -0.68 4.34 0 4 C0 2.68 0 1.36 0 0 Z " fill="#2C1E0E" transform="translate(45,223)"/>
<path d="M0 0 C1.65 0.33 3.3 0.66 5 1 C5 2.98 5 4.96 5 7 C4.34 6.34 3.68 5.68 3 5 C3 4.34 3 3.68 3 3 C1.68 2.67 0.36 2.34 -1 2 C-0.67 1.34 -0.34 0.68 0 0 Z " fill="#48320D" transform="translate(272,191)"/>
<path d="M0 0 C1.32 0 2.64 0 4 0 C4.33 1.32 4.66 2.64 5 4 C2 4 2 4 -1 2 C-0.67 1.34 -0.34 0.68 0 0 Z " fill="#2F2210" transform="translate(289,188)"/>
<path d="M0 0 C3.24732932 1.62366466 3.70155136 4.75387839 5 8 C4.01 8 3.02 8 2 8 C0.23537317 4.91190305 0 3.76687864 0 0 Z " fill="#312107" transform="translate(424,238)"/>
<path d="M0 0 C0.66 0 1.32 0 2 0 C0.52307692 4.67692308 0.52307692 4.67692308 -2.125 6.3125 C-3.053125 6.6528125 -3.053125 6.6528125 -4 7 C-4.66 6.34 -5.32 5.68 -6 5 C-5.195625 4.54625 -4.39125 4.0925 -3.5625 3.625 C-0.91143428 2.25274335 -0.91143428 2.25274335 0 0 Z " fill="#3A260D" transform="translate(147,238)"/>
<path d="M0 0 C1.32 0.33 2.64 0.66 4 1 C4.66 3.31 5.32 5.62 6 8 C5.34 8 4.68 8 4 8 C2.66666667 5.33333333 1.33333333 2.66666667 0 0 Z " fill="#36280F" transform="translate(151,223)"/>
</svg>
